<?xml version="1.0" encoding="utf-8" standalone="no"?>
<!DOCTYPE svg PUBLIC "-//W3C//DTD SVG 1.1//EN"
  "http://www.w3.org/Graphics/SVG/1.1/DTD/svg11.dtd">
<svg xmlns:xlink="http://www.w3.org/1999/xlink" width="711.157946pt" height="501.45875pt" viewBox="0 0 711.157946 501.45875" xmlns="http://www.w3.org/2000/svg" version="1.1">
 <metadata>
  <rdf:RDF xmlns:dc="http://purl.org/dc/elements/1.1/" xmlns:cc="http://creativecommons.org/ns#" xmlns:rdf="http://www.w3.org/1999/02/22-rdf-syntax-ns#">
   <cc:Work>
    <dc:type rdf:resource="http://purl.org/dc/dcmitype/StillImage"/>
    <dc:date>2026-03-25T12:40:54.112620</dc:date>
    <dc:format>image/svg+xml</dc:format>
    <dc:creator>
     <cc:Agent>
      <dc:title>Matplotlib v3.10.8, https://matplotlib.org/</dc:title>
     </cc:Agent>
    </dc:creator>
   </cc:Work>
  </rdf:RDF>
 </metadata>
 <defs>
  <style type="text/css">*{stroke-linejoin: round; stroke-linecap: butt}</style>
 </defs>
 <g id="figure_1">
  <g id="patch_1">
   <path d="M 0 501.45875 
L 711.157946 501.45875 
L 711.157946 0 
L 0 0 
z
" style="fill: #ffffff"/>
  </g>
  <g id="axes_1">
   <g id="patch_2">
    <path d="M 145.806875 465.838125 
L 703.806875 465.838125 
L 703.806875 22.318125 
L 145.806875 22.318125 
z
" style="fill: #ffffff"/>
   </g>
   <g id="patch_3">
    <path d="M 145.806875 460.798125 
L 677.235446 460.798125 
L 677.235446 450.718125 
L 145.806875 450.718125 
z
" clip-path="url(#p322c6f16ed)" style="fill: #008000"/>
   </g>
   <g id="patch_4">
    <path d="M 145.806875 440.638125 
L 273.88222 440.638125 
L 273.88222 430.558125 
L 145.806875 430.558125 
z
" clip-path="url(#p322c6f16ed)" style="fill: #008000"/>
   </g>
   <g id="patch_5">
    <path d="M 145.806875 420.478125 
L 271.817201 420.478125 
L 271.817201 410.398125 
L 145.806875 410.398125 
z
" clip-path="url(#p322c6f16ed)" style="fill: #008000"/>
   </g>
   <g id="patch_6">
    <path d="M 145.806875 400.318125 
L 249.222599 400.318125 
L 249.222599 390.238125 
L 145.806875 390.238125 
z
" clip-path="url(#p322c6f16ed)" style="fill: #008000"/>
   </g>
   <g id="patch_7">
    <path d="M 145.806875 380.158125 
L 247.43946 380.158125 
L 247.43946 370.078125 
L 145.806875 370.078125 
z
" clip-path="url(#p322c6f16ed)" style="fill: #ffa500"/>
   </g>
   <g id="patch_8">
    <path d="M 145.806875 359.998125 
L 237.884979 359.998125 
L 237.884979 349.918125 
L 145.806875 349.918125 
z
" clip-path="url(#p322c6f16ed)" style="fill: #008000"/>
   </g>
   <g id="patch_9">
    <path d="M 145.806875 339.838125 
L 215.382234 339.838125 
L 215.382234 329.758125 
L 145.806875 329.758125 
z
" clip-path="url(#p322c6f16ed)" style="fill: #ffa500"/>
   </g>
   <g id="patch_10">
    <path d="M 145.806875 319.678125 
L 199.087868 319.678125 
L 199.087868 309.598125 
L 145.806875 309.598125 
z
" clip-path="url(#p322c6f16ed)" style="fill: #008000"/>
   </g>
   <g id="patch_11">
    <path d="M 145.806875 299.518125 
L 198.613159 299.518125 
L 198.613159 289.438125 
L 145.806875 289.438125 
z
" clip-path="url(#p322c6f16ed)" style="fill: #ffa500"/>
   </g>
   <g id="patch_12">
    <path d="M 145.806875 279.358125 
L 192.019823 279.358125 
L 192.019823 269.278125 
L 145.806875 269.278125 
z
" clip-path="url(#p322c6f16ed)" style="fill: #ffa500"/>
   </g>
   <g id="patch_13">
    <path d="M 145.806875 259.198125 
L 175.451991 259.198125 
L 175.451991 249.118125 
L 145.806875 249.118125 
z
" clip-path="url(#p322c6f16ed)" style="fill: #ffa500"/>
   </g>
   <g id="patch_14">
    <path d="M 145.806875 239.038125 
L 172.535021 239.038125 
L 172.535021 228.958125 
L 145.806875 228.958125 
z
" clip-path="url(#p322c6f16ed)" style="fill: #ffa500"/>
   </g>
   <g id="patch_15">
    <path d="M 145.806875 218.878125 
L 169.38946 218.878125 
L 169.38946 208.798125 
L 145.806875 208.798125 
z
" clip-path="url(#p322c6f16ed)" style="fill: #008000"/>
   </g>
   <g id="patch_16">
    <path d="M 145.806875 198.718125 
L 164.47128 198.718125 
L 164.47128 188.638125 
L 145.806875 188.638125 
z
" clip-path="url(#p322c6f16ed)" style="fill: #008000"/>
   </g>
   <g id="patch_17">
    <path d="M 145.806875 178.558125 
L 158.17455 178.558125 
L 158.17455 168.478125 
L 145.806875 168.478125 
z
" clip-path="url(#p322c6f16ed)" style="fill: #008000"/>
   </g>
   <g id="patch_18">
    <path d="M 145.806875 158.398125 
L 157.147299 158.398125 
L 157.147299 148.318125 
L 145.806875 148.318125 
z
" clip-path="url(#p322c6f16ed)" style="fill: #008000"/>
   </g>
   <g id="patch_19">
    <path d="M 145.806875 138.238125 
L 151.595239 138.238125 
L 151.595239 128.158125 
L 145.806875 128.158125 
z
" clip-path="url(#p322c6f16ed)" style="fill: #008000"/>
   </g>
   <g id="patch_20">
    <path d="M 145.806875 118.078125 
L 148.972069 118.078125 
L 148.972069 107.998125 
L 145.806875 107.998125 
z
" clip-path="url(#p322c6f16ed)" style="fill: #ffa500"/>
   </g>
   <g id="patch_21">
    <path d="M 145.806875 97.918125 
L 148.763113 97.918125 
L 148.763113 87.838125 
L 145.806875 87.838125 
z
" clip-path="url(#p322c6f16ed)" style="fill: #ffa500"/>
   </g>
   <g id="patch_22">
    <path d="M 145.806875 77.758125 
L 147.898539 77.758125 
L 147.898539 67.678125 
L 145.806875 67.678125 
z
" clip-path="url(#p322c6f16ed)" style="fill: #008000"/>
   </g>
   <g id="patch_23">
    <path d="M 145.806875 57.598125 
L 147.031862 57.598125 
L 147.031862 47.518125 
L 145.806875 47.518125 
z
" clip-path="url(#p322c6f16ed)" style="fill: #008000"/>
   </g>
   <g id="patch_24">
    <path d="M 145.806875 37.438125 
L 146.088054 37.438125 
L 146.088054 27.358125 
L 145.806875 27.358125 
z
" clip-path="url(#p322c6f16ed)" style="fill: #ffa500"/>
   </g>
   <g id="matplotlib.axis_1">
    <g id="xtick_1">
     <g id="line2d_1">
      <defs>
       <path id="mb17881a0ba" d="M 0 0 
L 0 3.5 
" style="stroke: #000000; stroke-width: 0.8"/>
      </defs>
      <g>
       <use xlink:href="#mb17881a0ba" x="145.806875" y="465.838125" style="stroke: #000000; stroke-width: 0.8"/>
      </g>
     </g>
     <g id="text_1">
      <!-- 0 -->
      <g transform="translate(143.261875 478.916875) scale(0.08 -0.08)">
       <defs>
        <path id="DejaVuSans-30" d="M 2034 4250 
Q 1547 4250 1301 3770 
Q 1056 3291 1056 2328 
Q 1056 1369 1301 889 
Q 1547 409 2034 409 
Q 2525 409 2770 889 
Q 3016 1369 3016 2328 
Q 3016 3291 2770 3770 
Q 2525 4250 2034 4250 
z
M 2034 4750 
Q 2819 4750 3233 4129 
Q 3647 3509 3647 2328 
Q 3647 1150 3233 529 
Q 2819 -91 2034 -91 
Q 1250 -91 836 529 
Q 422 1150 422 2328 
Q 422 3509 836 4129 
Q 1250 4750 2034 4750 
z
" transform="scale(0.015625)"/>
       </defs>
       <use xlink:href="#DejaVuSans-30"/>
      </g>
     </g>
    </g>
    <g id="xtick_2">
     <g id="line2d_2">
      <g>
       <use xlink:href="#mb17881a0ba" x="215.926361" y="465.838125" style="stroke: #000000; stroke-width: 0.8"/>
      </g>
     </g>
     <g id="text_2">
      <!-- 100000 -->
      <g transform="translate(200.656361 478.916875) scale(0.08 -0.08)">
       <defs>
        <path id="DejaVuSans-31" d="M 794 531 
L 1825 531 
L 1825 4091 
L 703 3866 
L 703 4441 
L 1819 4666 
L 2450 4666 
L 2450 531 
L 3481 531 
L 3481 0 
L 794 0 
L 794 531 
z
" transform="scale(0.015625)"/>
       </defs>
       <use xlink:href="#DejaVuSans-31"/>
       <use xlink:href="#DejaVuSans-30" transform="translate(63.623047 0)"/>
       <use xlink:href="#DejaVuSans-30" transform="translate(127.246094 0)"/>
       <use xlink:href="#DejaVuSans-30" transform="translate(190.869141 0)"/>
       <use xlink:href="#DejaVuSans-30" transform="translate(254.492188 0)"/>
       <use xlink:href="#DejaVuSans-30" transform="translate(318.115234 0)"/>
      </g>
     </g>
    </g>
    <g id="xtick_3">
     <g id="line2d_3">
      <g>
       <use xlink:href="#mb17881a0ba" x="286.045847" y="465.838125" style="stroke: #000000; stroke-width: 0.8"/>
      </g>
     </g>
     <g id="text_3">
      <!-- 200000 -->
      <g transform="translate(270.775847 478.916875) scale(0.08 -0.08)">
       <defs>
        <path id="DejaVuSans-32" d="M 1228 531 
L 3431 531 
L 3431 0 
L 469 0 
L 469 531 
Q 828 903 1448 1529 
Q 2069 2156 2228 2338 
Q 2531 2678 2651 2914 
Q 2772 3150 2772 3378 
Q 2772 3750 2511 3984 
Q 2250 4219 1831 4219 
Q 1534 4219 1204 4116 
Q 875 4013 500 3803 
L 500 4441 
Q 881 4594 1212 4672 
Q 1544 4750 1819 4750 
Q 2544 4750 2975 4387 
Q 3406 4025 3406 3419 
Q 3406 3131 3298 2873 
Q 3191 2616 2906 2266 
Q 2828 2175 2409 1742 
Q 1991 1309 1228 531 
z
" transform="scale(0.015625)"/>
       </defs>
       <use xlink:href="#DejaVuSans-32"/>
       <use xlink:href="#DejaVuSans-30" transform="translate(63.623047 0)"/>
       <use xlink:href="#DejaVuSans-30" transform="translate(127.246094 0)"/>
       <use xlink:href="#DejaVuSans-30" transform="translate(190.869141 0)"/>
       <use xlink:href="#DejaVuSans-30" transform="translate(254.492188 0)"/>
       <use xlink:href="#DejaVuSans-30" transform="translate(318.115234 0)"/>
      </g>
     </g>
    </g>
    <g id="xtick_4">
     <g id="line2d_4">
      <g>
       <use xlink:href="#mb17881a0ba" x="356.165333" y="465.838125" style="stroke: #000000; stroke-width: 0.8"/>
      </g>
     </g>
     <g id="text_4">
      <!-- 300000 -->
      <g transform="translate(340.895333 478.916875) scale(0.08 -0.08)">
       <defs>
        <path id="DejaVuSans-33" d="M 2597 2516 
Q 3050 2419 3304 2112 
Q 3559 1806 3559 1356 
Q 3559 666 3084 287 
Q 2609 -91 1734 -91 
Q 1441 -91 1130 -33 
Q 819 25 488 141 
L 488 750 
Q 750 597 1062 519 
Q 1375 441 1716 441 
Q 2309 441 2620 675 
Q 2931 909 2931 1356 
Q 2931 1769 2642 2001 
Q 2353 2234 1838 2234 
L 1294 2234 
L 1294 2753 
L 1863 2753 
Q 2328 2753 2575 2939 
Q 2822 3125 2822 3475 
Q 2822 3834 2567 4026 
Q 2313 4219 1838 4219 
Q 1578 4219 1281 4162 
Q 984 4106 628 3988 
L 628 4550 
Q 988 4650 1302 4700 
Q 1616 4750 1894 4750 
Q 2613 4750 3031 4423 
Q 3450 4097 3450 3541 
Q 3450 3153 3228 2886 
Q 3006 2619 2597 2516 
z
" transform="scale(0.015625)"/>
       </defs>
       <use xlink:href="#DejaVuSans-33"/>
       <use xlink:href="#DejaVuSans-30" transform="translate(63.623047 0)"/>
       <use xlink:href="#DejaVuSans-30" transform="translate(127.246094 0)"/>
       <use xlink:href="#DejaVuSans-30" transform="translate(190.869141 0)"/>
       <use xlink:href="#DejaVuSans-30" transform="translate(254.492188 0)"/>
       <use xlink:href="#DejaVuSans-30" transform="translate(318.115234 0)"/>
      </g>
     </g>
    </g>
    <g id="xtick_5">
     <g id="line2d_5">
      <g>
       <use xlink:href="#mb17881a0ba" x="426.284818" y="465.838125" style="stroke: #000000; stroke-width: 0.8"/>
      </g>
     </g>
     <g id="text_5">
      <!-- 400000 -->
      <g transform="translate(411.014818 478.916875) scale(0.08 -0.08)">
       <defs>
        <path id="DejaVuSans-34" d="M 2419 4116 
L 825 1625 
L 2419 1625 
L 2419 4116 
z
M 2253 4666 
L 3047 4666 
L 3047 1625 
L 3713 1625 
L 3713 1100 
L 3047 1100 
L 3047 0 
L 2419 0 
L 2419 1100 
L 313 1100 
L 313 1709 
L 2253 4666 
z
" transform="scale(0.015625)"/>
       </defs>
       <use xlink:href="#DejaVuSans-34"/>
       <use xlink:href="#DejaVuSans-30" transform="translate(63.623047 0)"/>
       <use xlink:href="#DejaVuSans-30" transform="translate(127.246094 0)"/>
       <use xlink:href="#DejaVuSans-30" transform="translate(190.869141 0)"/>
       <use xlink:href="#DejaVuSans-30" transform="translate(254.492188 0)"/>
       <use xlink:href="#DejaVuSans-30" transform="translate(318.115234 0)"/>
      </g>
     </g>
    </g>
    <g id="xtick_6">
     <g id="line2d_6">
      <g>
       <use xlink:href="#mb17881a0ba" x="496.404304" y="465.838125" style="stroke: #000000; stroke-width: 0.8"/>
      </g>
     </g>
     <g id="text_6">
      <!-- 500000 -->
      <g transform="translate(481.134304 478.916875) scale(0.08 -0.08)">
       <defs>
        <path id="DejaVuSans-35" d="M 691 4666 
L 3169 4666 
L 3169 4134 
L 1269 4134 
L 1269 2991 
Q 1406 3038 1543 3061 
Q 1681 3084 1819 3084 
Q 2600 3084 3056 2656 
Q 3513 2228 3513 1497 
Q 3513 744 3044 326 
Q 2575 -91 1722 -91 
Q 1428 -91 1123 -41 
Q 819 9 494 109 
L 494 744 
Q 775 591 1075 516 
Q 1375 441 1709 441 
Q 2250 441 2565 725 
Q 2881 1009 2881 1497 
Q 2881 1984 2565 2268 
Q 2250 2553 1709 2553 
Q 1456 2553 1204 2497 
Q 953 2441 691 2322 
L 691 4666 
z
" transform="scale(0.015625)"/>
       </defs>
       <use xlink:href="#DejaVuSans-35"/>
       <use xlink:href="#DejaVuSans-30" transform="translate(63.623047 0)"/>
       <use xlink:href="#DejaVuSans-30" transform="translate(127.246094 0)"/>
       <use xlink:href="#DejaVuSans-30" transform="translate(190.869141 0)"/>
       <use xlink:href="#DejaVuSans-30" transform="translate(254.492188 0)"/>
       <use xlink:href="#DejaVuSans-30" transform="translate(318.115234 0)"/>
      </g>
     </g>
    </g>
    <g id="xtick_7">
     <g id="line2d_7">
      <g>
       <use xlink:href="#mb17881a0ba" x="566.52379" y="465.838125" style="stroke: #000000; stroke-width: 0.8"/>
      </g>
     </g>
     <g id="text_7">
      <!-- 600000 -->
      <g transform="translate(551.25379 478.916875) scale(0.08 -0.08)">
       <defs>
        <path id="DejaVuSans-36" d="M 2113 2584 
Q 1688 2584 1439 2293 
Q 1191 2003 1191 1497 
Q 1191 994 1439 701 
Q 1688 409 2113 409 
Q 2538 409 2786 701 
Q 3034 994 3034 1497 
Q 3034 2003 2786 2293 
Q 2538 2584 2113 2584 
z
M 3366 4563 
L 3366 3988 
Q 3128 4100 2886 4159 
Q 2644 4219 2406 4219 
Q 1781 4219 1451 3797 
Q 1122 3375 1075 2522 
Q 1259 2794 1537 2939 
Q 1816 3084 2150 3084 
Q 2853 3084 3261 2657 
Q 3669 2231 3669 1497 
Q 3669 778 3244 343 
Q 2819 -91 2113 -91 
Q 1303 -91 875 529 
Q 447 1150 447 2328 
Q 447 3434 972 4092 
Q 1497 4750 2381 4750 
Q 2619 4750 2861 4703 
Q 3103 4656 3366 4563 
z
" transform="scale(0.015625)"/>
       </defs>
       <use xlink:href="#DejaVuSans-36"/>
       <use xlink:href="#DejaVuSans-30" transform="translate(63.623047 0)"/>
       <use xlink:href="#DejaVuSans-30" transform="translate(127.246094 0)"/>
       <use xlink:href="#DejaVuSans-30" transform="translate(190.869141 0)"/>
       <use xlink:href="#DejaVuSans-30" transform="translate(254.492188 0)"/>
       <use xlink:href="#DejaVuSans-30" transform="translate(318.115234 0)"/>
      </g>
     </g>
    </g>
    <g id="xtick_8">
     <g id="line2d_8">
      <g>
       <use xlink:href="#mb17881a0ba" x="636.643276" y="465.838125" style="stroke: #000000; stroke-width: 0.8"/>
      </g>
     </g>
     <g id="text_8">
      <!-- 700000 -->
      <g transform="translate(621.373276 478.916875) scale(0.08 -0.08)">
       <defs>
        <path id="DejaVuSans-37" d="M 525 4666 
L 3525 4666 
L 3525 4397 
L 1831 0 
L 1172 0 
L 2766 4134 
L 525 4134 
L 525 4666 
z
" transform="scale(0.015625)"/>
       </defs>
       <use xlink:href="#DejaVuSans-37"/>
       <use xlink:href="#DejaVuSans-30" transform="translate(63.623047 0)"/>
       <use xlink:href="#DejaVuSans-30" transform="translate(127.246094 0)"/>
       <use xlink:href="#DejaVuSans-30" transform="translate(190.869141 0)"/>
       <use xlink:href="#DejaVuSans-30" transform="translate(254.492188 0)"/>
       <use xlink:href="#DejaVuSans-30" transform="translate(318.115234 0)"/>
      </g>
     </g>
    </g>
    <g id="text_9">
     <!-- Total Number of Incidents (2018-2025) -->
     <g transform="translate(327.946719 492.179062) scale(0.1 -0.1)">
      <defs>
       <path id="DejaVuSans-54" d="M -19 4666 
L 3928 4666 
L 3928 4134 
L 2272 4134 
L 2272 0 
L 1638 0 
L 1638 4134 
L -19 4134 
L -19 4666 
z
" transform="scale(0.015625)"/>
       <path id="DejaVuSans-6f" d="M 1959 3097 
Q 1497 3097 1228 2736 
Q 959 2375 959 1747 
Q 959 1119 1226 758 
Q 1494 397 1959 397 
Q 2419 397 2687 759 
Q 2956 1122 2956 1747 
Q 2956 2369 2687 2733 
Q 2419 3097 1959 3097 
z
M 1959 3584 
Q 2709 3584 3137 3096 
Q 3566 2609 3566 1747 
Q 3566 888 3137 398 
Q 2709 -91 1959 -91 
Q 1206 -91 779 398 
Q 353 888 353 1747 
Q 353 2609 779 3096 
Q 1206 3584 1959 3584 
z
" transform="scale(0.015625)"/>
       <path id="DejaVuSans-74" d="M 1172 4494 
L 1172 3500 
L 2356 3500 
L 2356 3053 
L 1172 3053 
L 1172 1153 
Q 1172 725 1289 603 
Q 1406 481 1766 481 
L 2356 481 
L 2356 0 
L 1766 0 
Q 1100 0 847 248 
Q 594 497 594 1153 
L 594 3053 
L 172 3053 
L 172 3500 
L 594 3500 
L 594 4494 
L 1172 4494 
z
" transform="scale(0.015625)"/>
       <path id="DejaVuSans-61" d="M 2194 1759 
Q 1497 1759 1228 1600 
Q 959 1441 959 1056 
Q 959 750 1161 570 
Q 1363 391 1709 391 
Q 2188 391 2477 730 
Q 2766 1069 2766 1631 
L 2766 1759 
L 2194 1759 
z
M 3341 1997 
L 3341 0 
L 2766 0 
L 2766 531 
Q 2569 213 2275 61 
Q 1981 -91 1556 -91 
Q 1019 -91 701 211 
Q 384 513 384 1019 
Q 384 1609 779 1909 
Q 1175 2209 1959 2209 
L 2766 2209 
L 2766 2266 
Q 2766 2663 2505 2880 
Q 2244 3097 1772 3097 
Q 1472 3097 1187 3025 
Q 903 2953 641 2809 
L 641 3341 
Q 956 3463 1253 3523 
Q 1550 3584 1831 3584 
Q 2591 3584 2966 3190 
Q 3341 2797 3341 1997 
z
" transform="scale(0.015625)"/>
       <path id="DejaVuSans-6c" d="M 603 4863 
L 1178 4863 
L 1178 0 
L 603 0 
L 603 4863 
z
" transform="scale(0.015625)"/>
       <path id="DejaVuSans-20" transform="scale(0.015625)"/>
       <path id="DejaVuSans-4e" d="M 628 4666 
L 1478 4666 
L 3547 763 
L 3547 4666 
L 4159 4666 
L 4159 0 
L 3309 0 
L 1241 3903 
L 1241 0 
L 628 0 
L 628 4666 
z
" transform="scale(0.015625)"/>
       <path id="DejaVuSans-75" d="M 544 1381 
L 544 3500 
L 1119 3500 
L 1119 1403 
Q 1119 906 1312 657 
Q 1506 409 1894 409 
Q 2359 409 2629 706 
Q 2900 1003 2900 1516 
L 2900 3500 
L 3475 3500 
L 3475 0 
L 2900 0 
L 2900 538 
Q 2691 219 2414 64 
Q 2138 -91 1772 -91 
Q 1169 -91 856 284 
Q 544 659 544 1381 
z
M 1991 3584 
L 1991 3584 
z
" transform="scale(0.015625)"/>
       <path id="DejaVuSans-6d" d="M 3328 2828 
Q 3544 3216 3844 3400 
Q 4144 3584 4550 3584 
Q 5097 3584 5394 3201 
Q 5691 2819 5691 2113 
L 5691 0 
L 5113 0 
L 5113 2094 
Q 5113 2597 4934 2840 
Q 4756 3084 4391 3084 
Q 3944 3084 3684 2787 
Q 3425 2491 3425 1978 
L 3425 0 
L 2847 0 
L 2847 2094 
Q 2847 2600 2669 2842 
Q 2491 3084 2119 3084 
Q 1678 3084 1418 2786 
Q 1159 2488 1159 1978 
L 1159 0 
L 581 0 
L 581 3500 
L 1159 3500 
L 1159 2956 
Q 1356 3278 1631 3431 
Q 1906 3584 2284 3584 
Q 2666 3584 2933 3390 
Q 3200 3197 3328 2828 
z
" transform="scale(0.015625)"/>
       <path id="DejaVuSans-62" d="M 3116 1747 
Q 3116 2381 2855 2742 
Q 2594 3103 2138 3103 
Q 1681 3103 1420 2742 
Q 1159 2381 1159 1747 
Q 1159 1113 1420 752 
Q 1681 391 2138 391 
Q 2594 391 2855 752 
Q 3116 1113 3116 1747 
z
M 1159 2969 
Q 1341 3281 1617 3432 
Q 1894 3584 2278 3584 
Q 2916 3584 3314 3078 
Q 3713 2572 3713 1747 
Q 3713 922 3314 415 
Q 2916 -91 2278 -91 
Q 1894 -91 1617 61 
Q 1341 213 1159 525 
L 1159 0 
L 581 0 
L 581 4863 
L 1159 4863 
L 1159 2969 
z
" transform="scale(0.015625)"/>
       <path id="DejaVuSans-65" d="M 3597 1894 
L 3597 1613 
L 953 1613 
Q 991 1019 1311 708 
Q 1631 397 2203 397 
Q 2534 397 2845 478 
Q 3156 559 3463 722 
L 3463 178 
Q 3153 47 2828 -22 
Q 2503 -91 2169 -91 
Q 1331 -91 842 396 
Q 353 884 353 1716 
Q 353 2575 817 3079 
Q 1281 3584 2069 3584 
Q 2775 3584 3186 3129 
Q 3597 2675 3597 1894 
z
M 3022 2063 
Q 3016 2534 2758 2815 
Q 2500 3097 2075 3097 
Q 1594 3097 1305 2825 
Q 1016 2553 972 2059 
L 3022 2063 
z
" transform="scale(0.015625)"/>
       <path id="DejaVuSans-72" d="M 2631 2963 
Q 2534 3019 2420 3045 
Q 2306 3072 2169 3072 
Q 1681 3072 1420 2755 
Q 1159 2438 1159 1844 
L 1159 0 
L 581 0 
L 581 3500 
L 1159 3500 
L 1159 2956 
Q 1341 3275 1631 3429 
Q 1922 3584 2338 3584 
Q 2397 3584 2469 3576 
Q 2541 3569 2628 3553 
L 2631 2963 
z
" transform="scale(0.015625)"/>
       <path id="DejaVuSans-66" d="M 2375 4863 
L 2375 4384 
L 1825 4384 
Q 1516 4384 1395 4259 
Q 1275 4134 1275 3809 
L 1275 3500 
L 2222 3500 
L 2222 3053 
L 1275 3053 
L 1275 0 
L 697 0 
L 697 3053 
L 147 3053 
L 147 3500 
L 697 3500 
L 697 3744 
Q 697 4328 969 4595 
Q 1241 4863 1831 4863 
L 2375 4863 
z
" transform="scale(0.015625)"/>
       <path id="DejaVuSans-49" d="M 628 4666 
L 1259 4666 
L 1259 0 
L 628 0 
L 628 4666 
z
" transform="scale(0.015625)"/>
       <path id="DejaVuSans-6e" d="M 3513 2113 
L 3513 0 
L 2938 0 
L 2938 2094 
Q 2938 2591 2744 2837 
Q 2550 3084 2163 3084 
Q 1697 3084 1428 2787 
Q 1159 2491 1159 1978 
L 1159 0 
L 581 0 
L 581 3500 
L 1159 3500 
L 1159 2956 
Q 1366 3272 1645 3428 
Q 1925 3584 2291 3584 
Q 2894 3584 3203 3211 
Q 3513 2838 3513 2113 
z
" transform="scale(0.015625)"/>
       <path id="DejaVuSans-63" d="M 3122 3366 
L 3122 2828 
Q 2878 2963 2633 3030 
Q 2388 3097 2138 3097 
Q 1578 3097 1268 2742 
Q 959 2388 959 1747 
Q 959 1106 1268 751 
Q 1578 397 2138 397 
Q 2388 397 2633 464 
Q 2878 531 3122 666 
L 3122 134 
Q 2881 22 2623 -34 
Q 2366 -91 2075 -91 
Q 1284 -91 818 406 
Q 353 903 353 1747 
Q 353 2603 823 3093 
Q 1294 3584 2113 3584 
Q 2378 3584 2631 3529 
Q 2884 3475 3122 3366 
z
" transform="scale(0.015625)"/>
       <path id="DejaVuSans-69" d="M 603 3500 
L 1178 3500 
L 1178 0 
L 603 0 
L 603 3500 
z
M 603 4863 
L 1178 4863 
L 1178 4134 
L 603 4134 
L 603 4863 
z
" transform="scale(0.015625)"/>
       <path id="DejaVuSans-64" d="M 2906 2969 
L 2906 4863 
L 3481 4863 
L 3481 0 
L 2906 0 
L 2906 525 
Q 2725 213 2448 61 
Q 2172 -91 1784 -91 
Q 1150 -91 751 415 
Q 353 922 353 1747 
Q 353 2572 751 3078 
Q 1150 3584 1784 3584 
Q 2172 3584 2448 3432 
Q 2725 3281 2906 2969 
z
M 947 1747 
Q 947 1113 1208 752 
Q 1469 391 1925 391 
Q 2381 391 2643 752 
Q 2906 1113 2906 1747 
Q 2906 2381 2643 2742 
Q 2381 3103 1925 3103 
Q 1469 3103 1208 2742 
Q 947 2381 947 1747 
z
" transform="scale(0.015625)"/>
       <path id="DejaVuSans-73" d="M 2834 3397 
L 2834 2853 
Q 2591 2978 2328 3040 
Q 2066 3103 1784 3103 
Q 1356 3103 1142 2972 
Q 928 2841 928 2578 
Q 928 2378 1081 2264 
Q 1234 2150 1697 2047 
L 1894 2003 
Q 2506 1872 2764 1633 
Q 3022 1394 3022 966 
Q 3022 478 2636 193 
Q 2250 -91 1575 -91 
Q 1294 -91 989 -36 
Q 684 19 347 128 
L 347 722 
Q 666 556 975 473 
Q 1284 391 1588 391 
Q 1994 391 2212 530 
Q 2431 669 2431 922 
Q 2431 1156 2273 1281 
Q 2116 1406 1581 1522 
L 1381 1569 
Q 847 1681 609 1914 
Q 372 2147 372 2553 
Q 372 3047 722 3315 
Q 1072 3584 1716 3584 
Q 2034 3584 2315 3537 
Q 2597 3491 2834 3397 
z
" transform="scale(0.015625)"/>
       <path id="DejaVuSans-28" d="M 1984 4856 
Q 1566 4138 1362 3434 
Q 1159 2731 1159 2009 
Q 1159 1288 1364 580 
Q 1569 -128 1984 -844 
L 1484 -844 
Q 1016 -109 783 600 
Q 550 1309 550 2009 
Q 550 2706 781 3412 
Q 1013 4119 1484 4856 
L 1984 4856 
z
" transform="scale(0.015625)"/>
       <path id="DejaVuSans-38" d="M 2034 2216 
Q 1584 2216 1326 1975 
Q 1069 1734 1069 1313 
Q 1069 891 1326 650 
Q 1584 409 2034 409 
Q 2484 409 2743 651 
Q 3003 894 3003 1313 
Q 3003 1734 2745 1975 
Q 2488 2216 2034 2216 
z
M 1403 2484 
Q 997 2584 770 2862 
Q 544 3141 544 3541 
Q 544 4100 942 4425 
Q 1341 4750 2034 4750 
Q 2731 4750 3128 4425 
Q 3525 4100 3525 3541 
Q 3525 3141 3298 2862 
Q 3072 2584 2669 2484 
Q 3125 2378 3379 2068 
Q 3634 1759 3634 1313 
Q 3634 634 3220 271 
Q 2806 -91 2034 -91 
Q 1263 -91 848 271 
Q 434 634 434 1313 
Q 434 1759 690 2068 
Q 947 2378 1403 2484 
z
M 1172 3481 
Q 1172 3119 1398 2916 
Q 1625 2713 2034 2713 
Q 2441 2713 2670 2916 
Q 2900 3119 2900 3481 
Q 2900 3844 2670 4047 
Q 2441 4250 2034 4250 
Q 1625 4250 1398 4047 
Q 1172 3844 1172 3481 
z
" transform="scale(0.015625)"/>
       <path id="DejaVuSans-2d" d="M 313 2009 
L 1997 2009 
L 1997 1497 
L 313 1497 
L 313 2009 
z
" transform="scale(0.015625)"/>
       <path id="DejaVuSans-29" d="M 513 4856 
L 1013 4856 
Q 1481 4119 1714 3412 
Q 1947 2706 1947 2009 
Q 1947 1309 1714 600 
Q 1481 -109 1013 -844 
L 513 -844 
Q 928 -128 1133 580 
Q 1338 1288 1338 2009 
Q 1338 2731 1133 3434 
Q 928 4138 513 4856 
z
" transform="scale(0.015625)"/>
      </defs>
      <use xlink:href="#DejaVuSans-54"/>
      <use xlink:href="#DejaVuSans-6f" transform="translate(44.083984 0)"/>
      <use xlink:href="#DejaVuSans-74" transform="translate(105.265625 0)"/>
      <use xlink:href="#DejaVuSans-61" transform="translate(144.474609 0)"/>
      <use xlink:href="#DejaVuSans-6c" transform="translate(205.753906 0)"/>
      <use xlink:href="#DejaVuSans-20" transform="translate(233.537109 0)"/>
      <use xlink:href="#DejaVuSans-4e" transform="translate(265.324219 0)"/>
      <use xlink:href="#DejaVuSans-75" transform="translate(340.128906 0)"/>
      <use xlink:href="#DejaVuSans-6d" transform="translate(403.507812 0)"/>
      <use xlink:href="#DejaVuSans-62" transform="translate(500.919922 0)"/>
      <use xlink:href="#DejaVuSans-65" transform="translate(564.396484 0)"/>
      <use xlink:href="#DejaVuSans-72" transform="translate(625.919922 0)"/>
      <use xlink:href="#DejaVuSans-20" transform="translate(667.033203 0)"/>
      <use xlink:href="#DejaVuSans-6f" transform="translate(698.820312 0)"/>
      <use xlink:href="#DejaVuSans-66" transform="translate(760.001953 0)"/>
      <use xlink:href="#DejaVuSans-20" transform="translate(795.207031 0)"/>
      <use xlink:href="#DejaVuSans-49" transform="translate(826.994141 0)"/>
      <use xlink:href="#DejaVuSans-6e" transform="translate(856.486328 0)"/>
      <use xlink:href="#DejaVuSans-63" transform="translate(919.865234 0)"/>
      <use xlink:href="#DejaVuSans-69" transform="translate(974.845703 0)"/>
      <use xlink:href="#DejaVuSans-64" transform="translate(1002.628906 0)"/>
      <use xlink:href="#DejaVuSans-65" transform="translate(1066.105469 0)"/>
      <use xlink:href="#DejaVuSans-6e" transform="translate(1127.628906 0)"/>
      <use xlink:href="#DejaVuSans-74" transform="translate(1191.007812 0)"/>
      <use xlink:href="#DejaVuSans-73" transform="translate(1230.216797 0)"/>
      <use xlink:href="#DejaVuSans-20" transform="translate(1282.316406 0)"/>
      <use xlink:href="#DejaVuSans-28" transform="translate(1314.103516 0)"/>
      <use xlink:href="#DejaVuSans-32" transform="translate(1353.117188 0)"/>
      <use xlink:href="#DejaVuSans-30" transform="translate(1416.740234 0)"/>
      <use xlink:href="#DejaVuSans-31" transform="translate(1480.363281 0)"/>
      <use xlink:href="#DejaVuSans-38" transform="translate(1543.986328 0)"/>
      <use xlink:href="#DejaVuSans-2d" transform="translate(1607.609375 0)"/>
      <use xlink:href="#DejaVuSans-32" transform="translate(1643.693359 0)"/>
      <use xlink:href="#DejaVuSans-30" transform="translate(1707.316406 0)"/>
      <use xlink:href="#DejaVuSans-32" transform="translate(1770.939453 0)"/>
      <use xlink:href="#DejaVuSans-35" transform="translate(1834.5625 0)"/>
      <use xlink:href="#DejaVuSans-29" transform="translate(1898.185547 0)"/>
     </g>
    </g>
   </g>
   <g id="matplotlib.axis_2">
    <g id="ytick_1">
     <g id="line2d_9">
      <defs>
       <path id="m89991d9fa7" d="M 0 0 
L -3.5 0 
" style="stroke: #000000; stroke-width: 0.8"/>
      </defs>
      <g>
       <use xlink:href="#m89991d9fa7" x="145.806875" y="455.758125" style="stroke: #000000; stroke-width: 0.8"/>
      </g>
     </g>
     <g id="text_10">
      <!-- Theft &amp; Larceny -->
      <g transform="translate(75.196875 458.7975) scale(0.08 -0.08)">
       <defs>
        <path id="DejaVuSans-68" d="M 3513 2113 
L 3513 0 
L 2938 0 
L 2938 2094 
Q 2938 2591 2744 2837 
Q 2550 3084 2163 3084 
Q 1697 3084 1428 2787 
Q 1159 2491 1159 1978 
L 1159 0 
L 581 0 
L 581 4863 
L 1159 4863 
L 1159 2956 
Q 1366 3272 1645 3428 
Q 1925 3584 2291 3584 
Q 2894 3584 3203 3211 
Q 3513 2838 3513 2113 
z
" transform="scale(0.015625)"/>
        <path id="DejaVuSans-26" d="M 1556 2509 
Q 1272 2256 1139 2004 
Q 1006 1753 1006 1478 
Q 1006 1022 1337 719 
Q 1669 416 2169 416 
Q 2466 416 2725 514 
Q 2984 613 3213 813 
L 1556 2509 
z
M 1997 2859 
L 3584 1234 
Q 3769 1513 3872 1830 
Q 3975 2147 3994 2503 
L 4575 2503 
Q 4538 2091 4375 1687 
Q 4213 1284 3922 891 
L 4794 0 
L 4006 0 
L 3559 459 
Q 3234 181 2878 45 
Q 2522 -91 2113 -91 
Q 1359 -91 881 339 
Q 403 769 403 1441 
Q 403 1841 612 2192 
Q 822 2544 1241 2853 
Q 1091 3050 1012 3245 
Q 934 3441 934 3628 
Q 934 4134 1281 4442 
Q 1628 4750 2203 4750 
Q 2463 4750 2720 4694 
Q 2978 4638 3244 4525 
L 3244 3956 
Q 2972 4103 2725 4179 
Q 2478 4256 2266 4256 
Q 1938 4256 1733 4082 
Q 1528 3909 1528 3634 
Q 1528 3475 1620 3314 
Q 1713 3153 1997 2859 
z
" transform="scale(0.015625)"/>
        <path id="DejaVuSans-4c" d="M 628 4666 
L 1259 4666 
L 1259 531 
L 3531 531 
L 3531 0 
L 628 0 
L 628 4666 
z
" transform="scale(0.015625)"/>
        <path id="DejaVuSans-79" d="M 2059 -325 
Q 1816 -950 1584 -1140 
Q 1353 -1331 966 -1331 
L 506 -1331 
L 506 -850 
L 844 -850 
Q 1081 -850 1212 -737 
Q 1344 -625 1503 -206 
L 1606 56 
L 191 3500 
L 800 3500 
L 1894 763 
L 2988 3500 
L 3597 3500 
L 2059 -325 
z
" transform="scale(0.015625)"/>
       </defs>
       <use xlink:href="#DejaVuSans-54"/>
       <use xlink:href="#DejaVuSans-68" transform="translate(61.083984 0)"/>
       <use xlink:href="#DejaVuSans-65" transform="translate(124.462891 0)"/>
       <use xlink:href="#DejaVuSans-66" transform="translate(185.986328 0)"/>
       <use xlink:href="#DejaVuSans-74" transform="translate(219.441406 0)"/>
       <use xlink:href="#DejaVuSans-20" transform="translate(258.650391 0)"/>
       <use xlink:href="#DejaVuSans-26" transform="translate(290.4375 0)"/>
       <use xlink:href="#DejaVuSans-20" transform="translate(368.416016 0)"/>
       <use xlink:href="#DejaVuSans-4c" transform="translate(400.203125 0)"/>
       <use xlink:href="#DejaVuSans-61" transform="translate(455.916016 0)"/>
       <use xlink:href="#DejaVuSans-72" transform="translate(517.195312 0)"/>
       <use xlink:href="#DejaVuSans-63" transform="translate(556.058594 0)"/>
       <use xlink:href="#DejaVuSans-65" transform="translate(611.039062 0)"/>
       <use xlink:href="#DejaVuSans-6e" transform="translate(672.5625 0)"/>
       <use xlink:href="#DejaVuSans-79" transform="translate(735.941406 0)"/>
      </g>
     </g>
    </g>
    <g id="ytick_2">
     <g id="line2d_10">
      <g>
       <use xlink:href="#m89991d9fa7" x="145.806875" y="435.598125" style="stroke: #000000; stroke-width: 0.8"/>
      </g>
     </g>
     <g id="text_11">
      <!-- Vandalism -->
      <g transform="translate(97.595625 438.6375) scale(0.08 -0.08)">
       <defs>
        <path id="DejaVuSans-56" d="M 1831 0 
L 50 4666 
L 709 4666 
L 2188 738 
L 3669 4666 
L 4325 4666 
L 2547 0 
L 1831 0 
z
" transform="scale(0.015625)"/>
       </defs>
       <use xlink:href="#DejaVuSans-56"/>
       <use xlink:href="#DejaVuSans-61" transform="translate(60.658203 0)"/>
       <use xlink:href="#DejaVuSans-6e" transform="translate(121.9375 0)"/>
       <use xlink:href="#DejaVuSans-64" transform="translate(185.316406 0)"/>
       <use xlink:href="#DejaVuSans-61" transform="translate(248.792969 0)"/>
       <use xlink:href="#DejaVuSans-6c" transform="translate(310.072266 0)"/>
       <use xlink:href="#DejaVuSans-69" transform="translate(337.855469 0)"/>
       <use xlink:href="#DejaVuSans-73" transform="translate(365.638672 0)"/>
       <use xlink:href="#DejaVuSans-6d" transform="translate(417.738281 0)"/>
      </g>
     </g>
    </g>
    <g id="ytick_3">
     <g id="line2d_11">
      <g>
       <use xlink:href="#m89991d9fa7" x="145.806875" y="415.438125" style="stroke: #000000; stroke-width: 0.8"/>
      </g>
     </g>
     <g id="text_12">
      <!-- Vehicle Theft -->
      <g transform="translate(86.961875 418.4775) scale(0.08 -0.08)">
       <use xlink:href="#DejaVuSans-56"/>
       <use xlink:href="#DejaVuSans-65" transform="translate(60.658203 0)"/>
       <use xlink:href="#DejaVuSans-68" transform="translate(122.181641 0)"/>
       <use xlink:href="#DejaVuSans-69" transform="translate(185.560547 0)"/>
       <use xlink:href="#DejaVuSans-63" transform="translate(213.34375 0)"/>
       <use xlink:href="#DejaVuSans-6c" transform="translate(268.324219 0)"/>
       <use xlink:href="#DejaVuSans-65" transform="translate(296.107422 0)"/>
       <use xlink:href="#DejaVuSans-20" transform="translate(357.630859 0)"/>
       <use xlink:href="#DejaVuSans-54" transform="translate(389.417969 0)"/>
       <use xlink:href="#DejaVuSans-68" transform="translate(450.501953 0)"/>
       <use xlink:href="#DejaVuSans-65" transform="translate(513.880859 0)"/>
       <use xlink:href="#DejaVuSans-66" transform="translate(575.404297 0)"/>
       <use xlink:href="#DejaVuSans-74" transform="translate(608.859375 0)"/>
      </g>
     </g>
    </g>
    <g id="ytick_4">
     <g id="line2d_12">
      <g>
       <use xlink:href="#m89991d9fa7" x="145.806875" y="395.278125" style="stroke: #000000; stroke-width: 0.8"/>
      </g>
     </g>
     <g id="text_13">
      <!-- Drug Offense -->
      <g transform="translate(85.654375 398.3175) scale(0.08 -0.08)">
       <defs>
        <path id="DejaVuSans-44" d="M 1259 4147 
L 1259 519 
L 2022 519 
Q 2988 519 3436 956 
Q 3884 1394 3884 2338 
Q 3884 3275 3436 3711 
Q 2988 4147 2022 4147 
L 1259 4147 
z
M 628 4666 
L 1925 4666 
Q 3281 4666 3915 4102 
Q 4550 3538 4550 2338 
Q 4550 1131 3912 565 
Q 3275 0 1925 0 
L 628 0 
L 628 4666 
z
" transform="scale(0.015625)"/>
        <path id="DejaVuSans-67" d="M 2906 1791 
Q 2906 2416 2648 2759 
Q 2391 3103 1925 3103 
Q 1463 3103 1205 2759 
Q 947 2416 947 1791 
Q 947 1169 1205 825 
Q 1463 481 1925 481 
Q 2391 481 2648 825 
Q 2906 1169 2906 1791 
z
M 3481 434 
Q 3481 -459 3084 -895 
Q 2688 -1331 1869 -1331 
Q 1566 -1331 1297 -1286 
Q 1028 -1241 775 -1147 
L 775 -588 
Q 1028 -725 1275 -790 
Q 1522 -856 1778 -856 
Q 2344 -856 2625 -561 
Q 2906 -266 2906 331 
L 2906 616 
Q 2728 306 2450 153 
Q 2172 0 1784 0 
Q 1141 0 747 490 
Q 353 981 353 1791 
Q 353 2603 747 3093 
Q 1141 3584 1784 3584 
Q 2172 3584 2450 3431 
Q 2728 3278 2906 2969 
L 2906 3500 
L 3481 3500 
L 3481 434 
z
" transform="scale(0.015625)"/>
        <path id="DejaVuSans-4f" d="M 2522 4238 
Q 1834 4238 1429 3725 
Q 1025 3213 1025 2328 
Q 1025 1447 1429 934 
Q 1834 422 2522 422 
Q 3209 422 3611 934 
Q 4013 1447 4013 2328 
Q 4013 3213 3611 3725 
Q 3209 4238 2522 4238 
z
M 2522 4750 
Q 3503 4750 4090 4092 
Q 4678 3434 4678 2328 
Q 4678 1225 4090 567 
Q 3503 -91 2522 -91 
Q 1538 -91 948 565 
Q 359 1222 359 2328 
Q 359 3434 948 4092 
Q 1538 4750 2522 4750 
z
" transform="scale(0.015625)"/>
       </defs>
       <use xlink:href="#DejaVuSans-44"/>
       <use xlink:href="#DejaVuSans-72" transform="translate(77.001953 0)"/>
       <use xlink:href="#DejaVuSans-75" transform="translate(118.115234 0)"/>
       <use xlink:href="#DejaVuSans-67" transform="translate(181.494141 0)"/>
       <use xlink:href="#DejaVuSans-20" transform="translate(244.970703 0)"/>
       <use xlink:href="#DejaVuSans-4f" transform="translate(276.757812 0)"/>
       <use xlink:href="#DejaVuSans-66" transform="translate(355.46875 0)"/>
       <use xlink:href="#DejaVuSans-66" transform="translate(390.673828 0)"/>
       <use xlink:href="#DejaVuSans-65" transform="translate(425.878906 0)"/>
       <use xlink:href="#DejaVuSans-6e" transform="translate(487.402344 0)"/>
       <use xlink:href="#DejaVuSans-73" transform="translate(550.78125 0)"/>
       <use xlink:href="#DejaVuSans-65" transform="translate(602.880859 0)"/>
      </g>
     </g>
    </g>
    <g id="ytick_5">
     <g id="line2d_13">
      <g>
       <use xlink:href="#m89991d9fa7" x="145.806875" y="375.118125" style="stroke: #000000; stroke-width: 0.8"/>
      </g>
     </g>
     <g id="text_14">
      <!-- Burglary -->
      <g transform="translate(104.871875 378.1575) scale(0.08 -0.08)">
       <defs>
        <path id="DejaVuSans-42" d="M 1259 2228 
L 1259 519 
L 2272 519 
Q 2781 519 3026 730 
Q 3272 941 3272 1375 
Q 3272 1813 3026 2020 
Q 2781 2228 2272 2228 
L 1259 2228 
z
M 1259 4147 
L 1259 2741 
L 2194 2741 
Q 2656 2741 2882 2914 
Q 3109 3088 3109 3444 
Q 3109 3797 2882 3972 
Q 2656 4147 2194 4147 
L 1259 4147 
z
M 628 4666 
L 2241 4666 
Q 2963 4666 3353 4366 
Q 3744 4066 3744 3513 
Q 3744 3084 3544 2831 
Q 3344 2578 2956 2516 
Q 3422 2416 3680 2098 
Q 3938 1781 3938 1306 
Q 3938 681 3513 340 
Q 3088 0 2303 0 
L 628 0 
L 628 4666 
z
" transform="scale(0.015625)"/>
       </defs>
       <use xlink:href="#DejaVuSans-42"/>
       <use xlink:href="#DejaVuSans-75" transform="translate(68.603516 0)"/>
       <use xlink:href="#DejaVuSans-72" transform="translate(131.982422 0)"/>
       <use xlink:href="#DejaVuSans-67" transform="translate(171.345703 0)"/>
       <use xlink:href="#DejaVuSans-6c" transform="translate(234.822266 0)"/>
       <use xlink:href="#DejaVuSans-61" transform="translate(262.605469 0)"/>
       <use xlink:href="#DejaVuSans-72" transform="translate(323.884766 0)"/>
       <use xlink:href="#DejaVuSans-79" transform="translate(364.998047 0)"/>
      </g>
     </g>
    </g>
    <g id="ytick_6">
     <g id="line2d_14">
      <g>
       <use xlink:href="#m89991d9fa7" x="145.806875" y="354.958125" style="stroke: #000000; stroke-width: 0.8"/>
      </g>
     </g>
     <g id="text_15">
      <!-- Warrants -->
      <g transform="translate(102.790625 357.9975) scale(0.08 -0.08)">
       <defs>
        <path id="DejaVuSans-57" d="M 213 4666 
L 850 4666 
L 1831 722 
L 2809 4666 
L 3519 4666 
L 4500 722 
L 5478 4666 
L 6119 4666 
L 4947 0 
L 4153 0 
L 3169 4050 
L 2175 0 
L 1381 0 
L 213 4666 
z
" transform="scale(0.015625)"/>
       </defs>
       <use xlink:href="#DejaVuSans-57"/>
       <use xlink:href="#DejaVuSans-61" transform="translate(92.501953 0)"/>
       <use xlink:href="#DejaVuSans-72" transform="translate(153.78125 0)"/>
       <use xlink:href="#DejaVuSans-72" transform="translate(193.144531 0)"/>
       <use xlink:href="#DejaVuSans-61" transform="translate(234.257812 0)"/>
       <use xlink:href="#DejaVuSans-6e" transform="translate(295.537109 0)"/>
       <use xlink:href="#DejaVuSans-74" transform="translate(358.916016 0)"/>
       <use xlink:href="#DejaVuSans-73" transform="translate(398.125 0)"/>
      </g>
     </g>
    </g>
    <g id="ytick_7">
     <g id="line2d_15">
      <g>
       <use xlink:href="#m89991d9fa7" x="145.806875" y="334.798125" style="stroke: #000000; stroke-width: 0.8"/>
      </g>
     </g>
     <g id="text_16">
      <!-- Suspicious Activity -->
      <g transform="translate(63.974375 337.8375) scale(0.08 -0.08)">
       <defs>
        <path id="DejaVuSans-53" d="M 3425 4513 
L 3425 3897 
Q 3066 4069 2747 4153 
Q 2428 4238 2131 4238 
Q 1616 4238 1336 4038 
Q 1056 3838 1056 3469 
Q 1056 3159 1242 3001 
Q 1428 2844 1947 2747 
L 2328 2669 
Q 3034 2534 3370 2195 
Q 3706 1856 3706 1288 
Q 3706 609 3251 259 
Q 2797 -91 1919 -91 
Q 1588 -91 1214 -16 
Q 841 59 441 206 
L 441 856 
Q 825 641 1194 531 
Q 1563 422 1919 422 
Q 2459 422 2753 634 
Q 3047 847 3047 1241 
Q 3047 1584 2836 1778 
Q 2625 1972 2144 2069 
L 1759 2144 
Q 1053 2284 737 2584 
Q 422 2884 422 3419 
Q 422 4038 858 4394 
Q 1294 4750 2059 4750 
Q 2388 4750 2728 4690 
Q 3069 4631 3425 4513 
z
" transform="scale(0.015625)"/>
        <path id="DejaVuSans-70" d="M 1159 525 
L 1159 -1331 
L 581 -1331 
L 581 3500 
L 1159 3500 
L 1159 2969 
Q 1341 3281 1617 3432 
Q 1894 3584 2278 3584 
Q 2916 3584 3314 3078 
Q 3713 2572 3713 1747 
Q 3713 922 3314 415 
Q 2916 -91 2278 -91 
Q 1894 -91 1617 61 
Q 1341 213 1159 525 
z
M 3116 1747 
Q 3116 2381 2855 2742 
Q 2594 3103 2138 3103 
Q 1681 3103 1420 2742 
Q 1159 2381 1159 1747 
Q 1159 1113 1420 752 
Q 1681 391 2138 391 
Q 2594 391 2855 752 
Q 3116 1113 3116 1747 
z
" transform="scale(0.015625)"/>
        <path id="DejaVuSans-41" d="M 2188 4044 
L 1331 1722 
L 3047 1722 
L 2188 4044 
z
M 1831 4666 
L 2547 4666 
L 4325 0 
L 3669 0 
L 3244 1197 
L 1141 1197 
L 716 0 
L 50 0 
L 1831 4666 
z
" transform="scale(0.015625)"/>
        <path id="DejaVuSans-76" d="M 191 3500 
L 800 3500 
L 1894 563 
L 2988 3500 
L 3597 3500 
L 2284 0 
L 1503 0 
L 191 3500 
z
" transform="scale(0.015625)"/>
       </defs>
       <use xlink:href="#DejaVuSans-53"/>
       <use xlink:href="#DejaVuSans-75" transform="translate(63.476562 0)"/>
       <use xlink:href="#DejaVuSans-73" transform="translate(126.855469 0)"/>
       <use xlink:href="#DejaVuSans-70" transform="translate(178.955078 0)"/>
       <use xlink:href="#DejaVuSans-69" transform="translate(242.431641 0)"/>
       <use xlink:href="#DejaVuSans-63" transform="translate(270.214844 0)"/>
       <use xlink:href="#DejaVuSans-69" transform="translate(325.195312 0)"/>
       <use xlink:href="#DejaVuSans-6f" transform="translate(352.978516 0)"/>
       <use xlink:href="#DejaVuSans-75" transform="translate(414.160156 0)"/>
       <use xlink:href="#DejaVuSans-73" transform="translate(477.539062 0)"/>
       <use xlink:href="#DejaVuSans-20" transform="translate(529.638672 0)"/>
       <use xlink:href="#DejaVuSans-41" transform="translate(561.425781 0)"/>
       <use xlink:href="#DejaVuSans-63" transform="translate(628.083984 0)"/>
       <use xlink:href="#DejaVuSans-74" transform="translate(683.064453 0)"/>
       <use xlink:href="#DejaVuSans-69" transform="translate(722.273438 0)"/>
       <use xlink:href="#DejaVuSans-76" transform="translate(750.056641 0)"/>
       <use xlink:href="#DejaVuSans-69" transform="translate(809.236328 0)"/>
       <use xlink:href="#DejaVuSans-74" transform="translate(837.019531 0)"/>
       <use xlink:href="#DejaVuSans-79" transform="translate(876.228516 0)"/>
      </g>
     </g>
    </g>
    <g id="ytick_8">
     <g id="line2d_16">
      <g>
       <use xlink:href="#m89991d9fa7" x="145.806875" y="314.638125" style="stroke: #000000; stroke-width: 0.8"/>
      </g>
     </g>
     <g id="text_17">
      <!-- Robbery -->
      <g transform="translate(105.609375 317.6775) scale(0.08 -0.08)">
       <defs>
        <path id="DejaVuSans-52" d="M 2841 2188 
Q 3044 2119 3236 1894 
Q 3428 1669 3622 1275 
L 4263 0 
L 3584 0 
L 2988 1197 
Q 2756 1666 2539 1819 
Q 2322 1972 1947 1972 
L 1259 1972 
L 1259 0 
L 628 0 
L 628 4666 
L 2053 4666 
Q 2853 4666 3247 4331 
Q 3641 3997 3641 3322 
Q 3641 2881 3436 2590 
Q 3231 2300 2841 2188 
z
M 1259 4147 
L 1259 2491 
L 2053 2491 
Q 2509 2491 2742 2702 
Q 2975 2913 2975 3322 
Q 2975 3731 2742 3939 
Q 2509 4147 2053 4147 
L 1259 4147 
z
" transform="scale(0.015625)"/>
       </defs>
       <use xlink:href="#DejaVuSans-52"/>
       <use xlink:href="#DejaVuSans-6f" transform="translate(64.982422 0)"/>
       <use xlink:href="#DejaVuSans-62" transform="translate(126.164062 0)"/>
       <use xlink:href="#DejaVuSans-62" transform="translate(189.640625 0)"/>
       <use xlink:href="#DejaVuSans-65" transform="translate(253.117188 0)"/>
       <use xlink:href="#DejaVuSans-72" transform="translate(314.640625 0)"/>
       <use xlink:href="#DejaVuSans-79" transform="translate(355.753906 0)"/>
      </g>
     </g>
    </g>
    <g id="ytick_9">
     <g id="line2d_17">
      <g>
       <use xlink:href="#m89991d9fa7" x="145.806875" y="294.478125" style="stroke: #000000; stroke-width: 0.8"/>
      </g>
     </g>
     <g id="text_18">
      <!-- Fraud -->
      <g transform="translate(116.445625 297.5175) scale(0.08 -0.08)">
       <defs>
        <path id="DejaVuSans-46" d="M 628 4666 
L 3309 4666 
L 3309 4134 
L 1259 4134 
L 1259 2759 
L 3109 2759 
L 3109 2228 
L 1259 2228 
L 1259 0 
L 628 0 
L 628 4666 
z
" transform="scale(0.015625)"/>
       </defs>
       <use xlink:href="#DejaVuSans-46"/>
       <use xlink:href="#DejaVuSans-72" transform="translate(50.269531 0)"/>
       <use xlink:href="#DejaVuSans-61" transform="translate(91.382812 0)"/>
       <use xlink:href="#DejaVuSans-75" transform="translate(152.662109 0)"/>
       <use xlink:href="#DejaVuSans-64" transform="translate(216.041016 0)"/>
      </g>
     </g>
    </g>
    <g id="ytick_10">
     <g id="line2d_18">
      <g>
       <use xlink:href="#m89991d9fa7" x="145.806875" y="274.318125" style="stroke: #000000; stroke-width: 0.8"/>
      </g>
     </g>
     <g id="text_19">
      <!-- Missing Person -->
      <g transform="translate(79.555625 277.3575) scale(0.08 -0.08)">
       <defs>
        <path id="DejaVuSans-4d" d="M 628 4666 
L 1569 4666 
L 2759 1491 
L 3956 4666 
L 4897 4666 
L 4897 0 
L 4281 0 
L 4281 4097 
L 3078 897 
L 2444 897 
L 1241 4097 
L 1241 0 
L 628 0 
L 628 4666 
z
" transform="scale(0.015625)"/>
        <path id="DejaVuSans-50" d="M 1259 4147 
L 1259 2394 
L 2053 2394 
Q 2494 2394 2734 2622 
Q 2975 2850 2975 3272 
Q 2975 3691 2734 3919 
Q 2494 4147 2053 4147 
L 1259 4147 
z
M 628 4666 
L 2053 4666 
Q 2838 4666 3239 4311 
Q 3641 3956 3641 3272 
Q 3641 2581 3239 2228 
Q 2838 1875 2053 1875 
L 1259 1875 
L 1259 0 
L 628 0 
L 628 4666 
z
" transform="scale(0.015625)"/>
       </defs>
       <use xlink:href="#DejaVuSans-4d"/>
       <use xlink:href="#DejaVuSans-69" transform="translate(86.279297 0)"/>
       <use xlink:href="#DejaVuSans-73" transform="translate(114.0625 0)"/>
       <use xlink:href="#DejaVuSans-73" transform="translate(166.162109 0)"/>
       <use xlink:href="#DejaVuSans-69" transform="translate(218.261719 0)"/>
       <use xlink:href="#DejaVuSans-6e" transform="translate(246.044922 0)"/>
       <use xlink:href="#DejaVuSans-67" transform="translate(309.423828 0)"/>
       <use xlink:href="#DejaVuSans-20" transform="translate(372.900391 0)"/>
       <use xlink:href="#DejaVuSans-50" transform="translate(404.6875 0)"/>
       <use xlink:href="#DejaVuSans-65" transform="translate(461.365234 0)"/>
       <use xlink:href="#DejaVuSans-72" transform="translate(522.888672 0)"/>
       <use xlink:href="#DejaVuSans-73" transform="translate(564.001953 0)"/>
       <use xlink:href="#DejaVuSans-6f" transform="translate(616.101562 0)"/>
       <use xlink:href="#DejaVuSans-6e" transform="translate(677.283203 0)"/>
      </g>
     </g>
    </g>
    <g id="ytick_11">
     <g id="line2d_19">
      <g>
       <use xlink:href="#m89991d9fa7" x="145.806875" y="254.158125" style="stroke: #000000; stroke-width: 0.8"/>
      </g>
     </g>
     <g id="text_20">
      <!-- Administrative / Investigation -->
      <g transform="translate(20.878125 257.1975) scale(0.08 -0.08)">
       <defs>
        <path id="DejaVuSans-2f" d="M 1625 4666 
L 2156 4666 
L 531 -594 
L 0 -594 
L 1625 4666 
z
" transform="scale(0.015625)"/>
       </defs>
       <use xlink:href="#DejaVuSans-41"/>
       <use xlink:href="#DejaVuSans-64" transform="translate(66.658203 0)"/>
       <use xlink:href="#DejaVuSans-6d" transform="translate(130.134766 0)"/>
       <use xlink:href="#DejaVuSans-69" transform="translate(227.546875 0)"/>
       <use xlink:href="#DejaVuSans-6e" transform="translate(255.330078 0)"/>
       <use xlink:href="#DejaVuSans-69" transform="translate(318.708984 0)"/>
       <use xlink:href="#DejaVuSans-73" transform="translate(346.492188 0)"/>
       <use xlink:href="#DejaVuSans-74" transform="translate(398.591797 0)"/>
       <use xlink:href="#DejaVuSans-72" transform="translate(437.800781 0)"/>
       <use xlink:href="#DejaVuSans-61" transform="translate(478.914062 0)"/>
       <use xlink:href="#DejaVuSans-74" transform="translate(540.193359 0)"/>
       <use xlink:href="#DejaVuSans-69" transform="translate(579.402344 0)"/>
       <use xlink:href="#DejaVuSans-76" transform="translate(607.185547 0)"/>
       <use xlink:href="#DejaVuSans-65" transform="translate(666.365234 0)"/>
       <use xlink:href="#DejaVuSans-20" transform="translate(727.888672 0)"/>
       <use xlink:href="#DejaVuSans-2f" transform="translate(759.675781 0)"/>
       <use xlink:href="#DejaVuSans-20" transform="translate(793.367188 0)"/>
       <use xlink:href="#DejaVuSans-49" transform="translate(825.154297 0)"/>
       <use xlink:href="#DejaVuSans-6e" transform="translate(854.646484 0)"/>
       <use xlink:href="#DejaVuSans-76" transform="translate(918.025391 0)"/>
       <use xlink:href="#DejaVuSans-65" transform="translate(977.205078 0)"/>
       <use xlink:href="#DejaVuSans-73" transform="translate(1038.728516 0)"/>
       <use xlink:href="#DejaVuSans-74" transform="translate(1090.828125 0)"/>
       <use xlink:href="#DejaVuSans-69" transform="translate(1130.037109 0)"/>
       <use xlink:href="#DejaVuSans-67" transform="translate(1157.820312 0)"/>
       <use xlink:href="#DejaVuSans-61" transform="translate(1221.296875 0)"/>
       <use xlink:href="#DejaVuSans-74" transform="translate(1282.576172 0)"/>
       <use xlink:href="#DejaVuSans-69" transform="translate(1321.785156 0)"/>
       <use xlink:href="#DejaVuSans-6f" transform="translate(1349.568359 0)"/>
       <use xlink:href="#DejaVuSans-6e" transform="translate(1410.75 0)"/>
      </g>
     </g>
    </g>
    <g id="ytick_12">
     <g id="line2d_20">
      <g>
       <use xlink:href="#m89991d9fa7" x="145.806875" y="233.998125" style="stroke: #000000; stroke-width: 0.8"/>
      </g>
     </g>
     <g id="text_21">
      <!-- Disorderly Conduct -->
      <g transform="translate(62.188125 237.0375) scale(0.08 -0.08)">
       <defs>
        <path id="DejaVuSans-43" d="M 4122 4306 
L 4122 3641 
Q 3803 3938 3442 4084 
Q 3081 4231 2675 4231 
Q 1875 4231 1450 3742 
Q 1025 3253 1025 2328 
Q 1025 1406 1450 917 
Q 1875 428 2675 428 
Q 3081 428 3442 575 
Q 3803 722 4122 1019 
L 4122 359 
Q 3791 134 3420 21 
Q 3050 -91 2638 -91 
Q 1578 -91 968 557 
Q 359 1206 359 2328 
Q 359 3453 968 4101 
Q 1578 4750 2638 4750 
Q 3056 4750 3426 4639 
Q 3797 4528 4122 4306 
z
" transform="scale(0.015625)"/>
       </defs>
       <use xlink:href="#DejaVuSans-44"/>
       <use xlink:href="#DejaVuSans-69" transform="translate(77.001953 0)"/>
       <use xlink:href="#DejaVuSans-73" transform="translate(104.785156 0)"/>
       <use xlink:href="#DejaVuSans-6f" transform="translate(156.884766 0)"/>
       <use xlink:href="#DejaVuSans-72" transform="translate(218.066406 0)"/>
       <use xlink:href="#DejaVuSans-64" transform="translate(257.429688 0)"/>
       <use xlink:href="#DejaVuSans-65" transform="translate(320.90625 0)"/>
       <use xlink:href="#DejaVuSans-72" transform="translate(382.429688 0)"/>
       <use xlink:href="#DejaVuSans-6c" transform="translate(423.542969 0)"/>
       <use xlink:href="#DejaVuSans-79" transform="translate(451.326172 0)"/>
       <use xlink:href="#DejaVuSans-20" transform="translate(510.505859 0)"/>
       <use xlink:href="#DejaVuSans-43" transform="translate(542.292969 0)"/>
       <use xlink:href="#DejaVuSans-6f" transform="translate(612.117188 0)"/>
       <use xlink:href="#DejaVuSans-6e" transform="translate(673.298828 0)"/>
       <use xlink:href="#DejaVuSans-64" transform="translate(736.677734 0)"/>
       <use xlink:href="#DejaVuSans-75" transform="translate(800.154297 0)"/>
       <use xlink:href="#DejaVuSans-63" transform="translate(863.533203 0)"/>
       <use xlink:href="#DejaVuSans-74" transform="translate(918.513672 0)"/>
      </g>
     </g>
    </g>
    <g id="ytick_13">
     <g id="line2d_21">
      <g>
       <use xlink:href="#m89991d9fa7" x="145.806875" y="213.838125" style="stroke: #000000; stroke-width: 0.8"/>
      </g>
     </g>
     <g id="text_22">
      <!-- Weapons Offense -->
      <g transform="translate(68.775625 216.8775) scale(0.08 -0.08)">
       <use xlink:href="#DejaVuSans-57"/>
       <use xlink:href="#DejaVuSans-65" transform="translate(93.001953 0)"/>
       <use xlink:href="#DejaVuSans-61" transform="translate(154.525391 0)"/>
       <use xlink:href="#DejaVuSans-70" transform="translate(215.804688 0)"/>
       <use xlink:href="#DejaVuSans-6f" transform="translate(279.28125 0)"/>
       <use xlink:href="#DejaVuSans-6e" transform="translate(340.462891 0)"/>
       <use xlink:href="#DejaVuSans-73" transform="translate(403.841797 0)"/>
       <use xlink:href="#DejaVuSans-20" transform="translate(455.941406 0)"/>
       <use xlink:href="#DejaVuSans-4f" transform="translate(487.728516 0)"/>
       <use xlink:href="#DejaVuSans-66" transform="translate(566.439453 0)"/>
       <use xlink:href="#DejaVuSans-66" transform="translate(601.644531 0)"/>
       <use xlink:href="#DejaVuSans-65" transform="translate(636.849609 0)"/>
       <use xlink:href="#DejaVuSans-6e" transform="translate(698.373047 0)"/>
       <use xlink:href="#DejaVuSans-73" transform="translate(761.751953 0)"/>
       <use xlink:href="#DejaVuSans-65" transform="translate(813.851562 0)"/>
      </g>
     </g>
    </g>
    <g id="ytick_14">
     <g id="line2d_22">
      <g>
       <use xlink:href="#m89991d9fa7" x="145.806875" y="193.678125" style="stroke: #000000; stroke-width: 0.8"/>
      </g>
     </g>
     <g id="text_23">
      <!-- Forgery/Counterfeiting -->
      <g transform="translate(48.294375 196.7175) scale(0.08 -0.08)">
       <use xlink:href="#DejaVuSans-46"/>
       <use xlink:href="#DejaVuSans-6f" transform="translate(53.894531 0)"/>
       <use xlink:href="#DejaVuSans-72" transform="translate(115.076172 0)"/>
       <use xlink:href="#DejaVuSans-67" transform="translate(154.439453 0)"/>
       <use xlink:href="#DejaVuSans-65" transform="translate(217.916016 0)"/>
       <use xlink:href="#DejaVuSans-72" transform="translate(279.439453 0)"/>
       <use xlink:href="#DejaVuSans-79" transform="translate(320.552734 0)"/>
       <use xlink:href="#DejaVuSans-2f" transform="translate(379.732422 0)"/>
       <use xlink:href="#DejaVuSans-43" transform="translate(413.423828 0)"/>
       <use xlink:href="#DejaVuSans-6f" transform="translate(483.248047 0)"/>
       <use xlink:href="#DejaVuSans-75" transform="translate(544.429688 0)"/>
       <use xlink:href="#DejaVuSans-6e" transform="translate(607.808594 0)"/>
       <use xlink:href="#DejaVuSans-74" transform="translate(671.1875 0)"/>
       <use xlink:href="#DejaVuSans-65" transform="translate(710.396484 0)"/>
       <use xlink:href="#DejaVuSans-72" transform="translate(771.919922 0)"/>
       <use xlink:href="#DejaVuSans-66" transform="translate(813.033203 0)"/>
       <use xlink:href="#DejaVuSans-65" transform="translate(848.238281 0)"/>
       <use xlink:href="#DejaVuSans-69" transform="translate(909.761719 0)"/>
       <use xlink:href="#DejaVuSans-74" transform="translate(937.544922 0)"/>
       <use xlink:href="#DejaVuSans-69" transform="translate(976.753906 0)"/>
       <use xlink:href="#DejaVuSans-6e" transform="translate(1004.537109 0)"/>
       <use xlink:href="#DejaVuSans-67" transform="translate(1067.916016 0)"/>
      </g>
     </g>
    </g>
    <g id="ytick_15">
     <g id="line2d_23">
      <g>
       <use xlink:href="#m89991d9fa7" x="145.806875" y="173.518125" style="stroke: #000000; stroke-width: 0.8"/>
      </g>
     </g>
     <g id="text_24">
      <!-- Prostitution &amp; Trafficking -->
      <g transform="translate(40.584375 176.5575) scale(0.08 -0.08)">
       <defs>
        <path id="DejaVuSans-6b" d="M 581 4863 
L 1159 4863 
L 1159 1991 
L 2875 3500 
L 3609 3500 
L 1753 1863 
L 3688 0 
L 2938 0 
L 1159 1709 
L 1159 0 
L 581 0 
L 581 4863 
z
" transform="scale(0.015625)"/>
       </defs>
       <use xlink:href="#DejaVuSans-50"/>
       <use xlink:href="#DejaVuSans-72" transform="translate(58.552734 0)"/>
       <use xlink:href="#DejaVuSans-6f" transform="translate(97.416016 0)"/>
       <use xlink:href="#DejaVuSans-73" transform="translate(158.597656 0)"/>
       <use xlink:href="#DejaVuSans-74" transform="translate(210.697266 0)"/>
       <use xlink:href="#DejaVuSans-69" transform="translate(249.90625 0)"/>
       <use xlink:href="#DejaVuSans-74" transform="translate(277.689453 0)"/>
       <use xlink:href="#DejaVuSans-75" transform="translate(316.898438 0)"/>
       <use xlink:href="#DejaVuSans-74" transform="translate(380.277344 0)"/>
       <use xlink:href="#DejaVuSans-69" transform="translate(419.486328 0)"/>
       <use xlink:href="#DejaVuSans-6f" transform="translate(447.269531 0)"/>
       <use xlink:href="#DejaVuSans-6e" transform="translate(508.451172 0)"/>
       <use xlink:href="#DejaVuSans-20" transform="translate(571.830078 0)"/>
       <use xlink:href="#DejaVuSans-26" transform="translate(603.617188 0)"/>
       <use xlink:href="#DejaVuSans-20" transform="translate(681.595703 0)"/>
       <use xlink:href="#DejaVuSans-54" transform="translate(713.382812 0)"/>
       <use xlink:href="#DejaVuSans-72" transform="translate(759.716797 0)"/>
       <use xlink:href="#DejaVuSans-61" transform="translate(800.830078 0)"/>
       <use xlink:href="#DejaVuSans-66" transform="translate(862.109375 0)"/>
       <use xlink:href="#DejaVuSans-66" transform="translate(897.314453 0)"/>
       <use xlink:href="#DejaVuSans-69" transform="translate(932.519531 0)"/>
       <use xlink:href="#DejaVuSans-63" transform="translate(960.302734 0)"/>
       <use xlink:href="#DejaVuSans-6b" transform="translate(1015.283203 0)"/>
       <use xlink:href="#DejaVuSans-69" transform="translate(1073.193359 0)"/>
       <use xlink:href="#DejaVuSans-6e" transform="translate(1100.976562 0)"/>
       <use xlink:href="#DejaVuSans-67" transform="translate(1164.355469 0)"/>
      </g>
     </g>
    </g>
    <g id="ytick_16">
     <g id="line2d_24">
      <g>
       <use xlink:href="#m89991d9fa7" x="145.806875" y="153.358125" style="stroke: #000000; stroke-width: 0.8"/>
      </g>
     </g>
     <g id="text_25">
      <!-- Stolen Property -->
      <g transform="translate(77.090625 156.3975) scale(0.08 -0.08)">
       <use xlink:href="#DejaVuSans-53"/>
       <use xlink:href="#DejaVuSans-74" transform="translate(63.476562 0)"/>
       <use xlink:href="#DejaVuSans-6f" transform="translate(102.685547 0)"/>
       <use xlink:href="#DejaVuSans-6c" transform="translate(163.867188 0)"/>
       <use xlink:href="#DejaVuSans-65" transform="translate(191.650391 0)"/>
       <use xlink:href="#DejaVuSans-6e" transform="translate(253.173828 0)"/>
       <use xlink:href="#DejaVuSans-20" transform="translate(316.552734 0)"/>
       <use xlink:href="#DejaVuSans-50" transform="translate(348.339844 0)"/>
       <use xlink:href="#DejaVuSans-72" transform="translate(406.892578 0)"/>
       <use xlink:href="#DejaVuSans-6f" transform="translate(445.755859 0)"/>
       <use xlink:href="#DejaVuSans-70" transform="translate(506.9375 0)"/>
       <use xlink:href="#DejaVuSans-65" transform="translate(570.414062 0)"/>
       <use xlink:href="#DejaVuSans-72" transform="translate(631.9375 0)"/>
       <use xlink:href="#DejaVuSans-74" transform="translate(673.050781 0)"/>
       <use xlink:href="#DejaVuSans-79" transform="translate(712.259766 0)"/>
      </g>
     </g>
    </g>
    <g id="ytick_17">
     <g id="line2d_25">
      <g>
       <use xlink:href="#m89991d9fa7" x="145.806875" y="133.198125" style="stroke: #000000; stroke-width: 0.8"/>
      </g>
     </g>
     <g id="text_26">
      <!-- Arson &amp; Fire -->
      <g transform="translate(90.314375 136.2375) scale(0.08 -0.08)">
       <use xlink:href="#DejaVuSans-41"/>
       <use xlink:href="#DejaVuSans-72" transform="translate(68.408203 0)"/>
       <use xlink:href="#DejaVuSans-73" transform="translate(109.521484 0)"/>
       <use xlink:href="#DejaVuSans-6f" transform="translate(161.621094 0)"/>
       <use xlink:href="#DejaVuSans-6e" transform="translate(222.802734 0)"/>
       <use xlink:href="#DejaVuSans-20" transform="translate(286.181641 0)"/>
       <use xlink:href="#DejaVuSans-26" transform="translate(317.96875 0)"/>
       <use xlink:href="#DejaVuSans-20" transform="translate(395.947266 0)"/>
       <use xlink:href="#DejaVuSans-46" transform="translate(427.734375 0)"/>
       <use xlink:href="#DejaVuSans-69" transform="translate(478.003906 0)"/>
       <use xlink:href="#DejaVuSans-72" transform="translate(505.787109 0)"/>
       <use xlink:href="#DejaVuSans-65" transform="translate(544.650391 0)"/>
      </g>
     </g>
    </g>
    <g id="ytick_18">
     <g id="line2d_26">
      <g>
       <use xlink:href="#m89991d9fa7" x="145.806875" y="113.038125" style="stroke: #000000; stroke-width: 0.8"/>
      </g>
     </g>
     <g id="text_27">
      <!-- Violent Crime -->
      <g transform="translate(84.690625 116.0775) scale(0.08 -0.08)">
       <use xlink:href="#DejaVuSans-56"/>
       <use xlink:href="#DejaVuSans-69" transform="translate(66.158203 0)"/>
       <use xlink:href="#DejaVuSans-6f" transform="translate(93.941406 0)"/>
       <use xlink:href="#DejaVuSans-6c" transform="translate(155.123047 0)"/>
       <use xlink:href="#DejaVuSans-65" transform="translate(182.90625 0)"/>
       <use xlink:href="#DejaVuSans-6e" transform="translate(244.429688 0)"/>
       <use xlink:href="#DejaVuSans-74" transform="translate(307.808594 0)"/>
       <use xlink:href="#DejaVuSans-20" transform="translate(347.017578 0)"/>
       <use xlink:href="#DejaVuSans-43" transform="translate(378.804688 0)"/>
       <use xlink:href="#DejaVuSans-72" transform="translate(448.628906 0)"/>
       <use xlink:href="#DejaVuSans-69" transform="translate(489.742188 0)"/>
       <use xlink:href="#DejaVuSans-6d" transform="translate(517.525391 0)"/>
       <use xlink:href="#DejaVuSans-65" transform="translate(614.9375 0)"/>
      </g>
     </g>
    </g>
    <g id="ytick_19">
     <g id="line2d_27">
      <g>
       <use xlink:href="#m89991d9fa7" x="145.806875" y="92.878125" style="stroke: #000000; stroke-width: 0.8"/>
      </g>
     </g>
     <g id="text_28">
      <!-- Embezzlement -->
      <g transform="translate(79.494375 95.9175) scale(0.08 -0.08)">
       <defs>
        <path id="DejaVuSans-45" d="M 628 4666 
L 3578 4666 
L 3578 4134 
L 1259 4134 
L 1259 2753 
L 3481 2753 
L 3481 2222 
L 1259 2222 
L 1259 531 
L 3634 531 
L 3634 0 
L 628 0 
L 628 4666 
z
" transform="scale(0.015625)"/>
        <path id="DejaVuSans-7a" d="M 353 3500 
L 3084 3500 
L 3084 2975 
L 922 459 
L 3084 459 
L 3084 0 
L 275 0 
L 275 525 
L 2438 3041 
L 353 3041 
L 353 3500 
z
" transform="scale(0.015625)"/>
       </defs>
       <use xlink:href="#DejaVuSans-45"/>
       <use xlink:href="#DejaVuSans-6d" transform="translate(63.183594 0)"/>
       <use xlink:href="#DejaVuSans-62" transform="translate(160.595703 0)"/>
       <use xlink:href="#DejaVuSans-65" transform="translate(224.072266 0)"/>
       <use xlink:href="#DejaVuSans-7a" transform="translate(285.595703 0)"/>
       <use xlink:href="#DejaVuSans-7a" transform="translate(338.085938 0)"/>
       <use xlink:href="#DejaVuSans-6c" transform="translate(390.576172 0)"/>
       <use xlink:href="#DejaVuSans-65" transform="translate(418.359375 0)"/>
       <use xlink:href="#DejaVuSans-6d" transform="translate(479.882812 0)"/>
       <use xlink:href="#DejaVuSans-65" transform="translate(577.294922 0)"/>
       <use xlink:href="#DejaVuSans-6e" transform="translate(638.818359 0)"/>
       <use xlink:href="#DejaVuSans-74" transform="translate(702.197266 0)"/>
      </g>
     </g>
    </g>
    <g id="ytick_20">
     <g id="line2d_28">
      <g>
       <use xlink:href="#m89991d9fa7" x="145.806875" y="72.718125" style="stroke: #000000; stroke-width: 0.8"/>
      </g>
     </g>
     <g id="text_29">
      <!-- Liquor Law Violation -->
      <g transform="translate(57.948125 75.7575) scale(0.08 -0.08)">
       <defs>
        <path id="DejaVuSans-71" d="M 947 1747 
Q 947 1113 1208 752 
Q 1469 391 1925 391 
Q 2381 391 2643 752 
Q 2906 1113 2906 1747 
Q 2906 2381 2643 2742 
Q 2381 3103 1925 3103 
Q 1469 3103 1208 2742 
Q 947 2381 947 1747 
z
M 2906 525 
Q 2725 213 2448 61 
Q 2172 -91 1784 -91 
Q 1150 -91 751 415 
Q 353 922 353 1747 
Q 353 2572 751 3078 
Q 1150 3584 1784 3584 
Q 2172 3584 2448 3432 
Q 2725 3281 2906 2969 
L 2906 3500 
L 3481 3500 
L 3481 -1331 
L 2906 -1331 
L 2906 525 
z
" transform="scale(0.015625)"/>
        <path id="DejaVuSans-77" d="M 269 3500 
L 844 3500 
L 1563 769 
L 2278 3500 
L 2956 3500 
L 3675 769 
L 4391 3500 
L 4966 3500 
L 4050 0 
L 3372 0 
L 2619 2869 
L 1863 0 
L 1184 0 
L 269 3500 
z
" transform="scale(0.015625)"/>
       </defs>
       <use xlink:href="#DejaVuSans-4c"/>
       <use xlink:href="#DejaVuSans-69" transform="translate(55.712891 0)"/>
       <use xlink:href="#DejaVuSans-71" transform="translate(83.496094 0)"/>
       <use xlink:href="#DejaVuSans-75" transform="translate(146.972656 0)"/>
       <use xlink:href="#DejaVuSans-6f" transform="translate(210.351562 0)"/>
       <use xlink:href="#DejaVuSans-72" transform="translate(271.533203 0)"/>
       <use xlink:href="#DejaVuSans-20" transform="translate(312.646484 0)"/>
       <use xlink:href="#DejaVuSans-4c" transform="translate(344.433594 0)"/>
       <use xlink:href="#DejaVuSans-61" transform="translate(400.146484 0)"/>
       <use xlink:href="#DejaVuSans-77" transform="translate(461.425781 0)"/>
       <use xlink:href="#DejaVuSans-20" transform="translate(543.212891 0)"/>
       <use xlink:href="#DejaVuSans-56" transform="translate(575 0)"/>
       <use xlink:href="#DejaVuSans-69" transform="translate(641.158203 0)"/>
       <use xlink:href="#DejaVuSans-6f" transform="translate(668.941406 0)"/>
       <use xlink:href="#DejaVuSans-6c" transform="translate(730.123047 0)"/>
       <use xlink:href="#DejaVuSans-61" transform="translate(757.90625 0)"/>
       <use xlink:href="#DejaVuSans-74" transform="translate(819.185547 0)"/>
       <use xlink:href="#DejaVuSans-69" transform="translate(858.394531 0)"/>
       <use xlink:href="#DejaVuSans-6f" transform="translate(886.177734 0)"/>
       <use xlink:href="#DejaVuSans-6e" transform="translate(947.359375 0)"/>
      </g>
     </g>
    </g>
    <g id="ytick_21">
     <g id="line2d_29">
      <g>
       <use xlink:href="#m89991d9fa7" x="145.806875" y="52.558125" style="stroke: #000000; stroke-width: 0.8"/>
      </g>
     </g>
     <g id="text_30">
      <!-- Suicide -->
      <g transform="translate(109.813125 55.5975) scale(0.08 -0.08)">
       <use xlink:href="#DejaVuSans-53"/>
       <use xlink:href="#DejaVuSans-75" transform="translate(63.476562 0)"/>
       <use xlink:href="#DejaVuSans-69" transform="translate(126.855469 0)"/>
       <use xlink:href="#DejaVuSans-63" transform="translate(154.638672 0)"/>
       <use xlink:href="#DejaVuSans-69" transform="translate(209.619141 0)"/>
       <use xlink:href="#DejaVuSans-64" transform="translate(237.402344 0)"/>
       <use xlink:href="#DejaVuSans-65" transform="translate(300.878906 0)"/>
      </g>
     </g>
    </g>
    <g id="ytick_22">
     <g id="line2d_30">
      <g>
       <use xlink:href="#m89991d9fa7" x="145.806875" y="32.398125" style="stroke: #000000; stroke-width: 0.8"/>
      </g>
     </g>
     <g id="text_31">
      <!-- Gambling -->
      <g transform="translate(100.240625 35.4375) scale(0.08 -0.08)">
       <defs>
        <path id="DejaVuSans-47" d="M 3809 666 
L 3809 1919 
L 2778 1919 
L 2778 2438 
L 4434 2438 
L 4434 434 
Q 4069 175 3628 42 
Q 3188 -91 2688 -91 
Q 1594 -91 976 548 
Q 359 1188 359 2328 
Q 359 3472 976 4111 
Q 1594 4750 2688 4750 
Q 3144 4750 3555 4637 
Q 3966 4525 4313 4306 
L 4313 3634 
Q 3963 3931 3569 4081 
Q 3175 4231 2741 4231 
Q 1884 4231 1454 3753 
Q 1025 3275 1025 2328 
Q 1025 1384 1454 906 
Q 1884 428 2741 428 
Q 3075 428 3337 486 
Q 3600 544 3809 666 
z
" transform="scale(0.015625)"/>
       </defs>
       <use xlink:href="#DejaVuSans-47"/>
       <use xlink:href="#DejaVuSans-61" transform="translate(77.490234 0)"/>
       <use xlink:href="#DejaVuSans-6d" transform="translate(138.769531 0)"/>
       <use xlink:href="#DejaVuSans-62" transform="translate(236.181641 0)"/>
       <use xlink:href="#DejaVuSans-6c" transform="translate(299.658203 0)"/>
       <use xlink:href="#DejaVuSans-69" transform="translate(327.441406 0)"/>
       <use xlink:href="#DejaVuSans-6e" transform="translate(355.224609 0)"/>
       <use xlink:href="#DejaVuSans-67" transform="translate(418.603516 0)"/>
      </g>
     </g>
    </g>
    <g id="text_32">
     <!-- Incident Category -->
     <g transform="translate(14.798437 288.669531) rotate(-90) scale(0.1 -0.1)">
      <use xlink:href="#DejaVuSans-49"/>
      <use xlink:href="#DejaVuSans-6e" transform="translate(29.492188 0)"/>
      <use xlink:href="#DejaVuSans-63" transform="translate(92.871094 0)"/>
      <use xlink:href="#DejaVuSans-69" transform="translate(147.851562 0)"/>
      <use xlink:href="#DejaVuSans-64" transform="translate(175.634766 0)"/>
      <use xlink:href="#DejaVuSans-65" transform="translate(239.111328 0)"/>
      <use xlink:href="#DejaVuSans-6e" transform="translate(300.634766 0)"/>
      <use xlink:href="#DejaVuSans-74" transform="translate(364.013672 0)"/>
      <use xlink:href="#DejaVuSans-20" transform="translate(403.222656 0)"/>
      <use xlink:href="#DejaVuSans-43" transform="translate(435.009766 0)"/>
      <use xlink:href="#DejaVuSans-61" transform="translate(504.833984 0)"/>
      <use xlink:href="#DejaVuSans-74" transform="translate(566.113281 0)"/>
      <use xlink:href="#DejaVuSans-65" transform="translate(605.322266 0)"/>
      <use xlink:href="#DejaVuSans-67" transform="translate(666.845703 0)"/>
      <use xlink:href="#DejaVuSans-6f" transform="translate(730.322266 0)"/>
      <use xlink:href="#DejaVuSans-72" transform="translate(791.503906 0)"/>
      <use xlink:href="#DejaVuSans-79" transform="translate(832.617188 0)"/>
     </g>
    </g>
   </g>
   <g id="patch_25">
    <path d="M 145.806875 465.838125 
L 145.806875 22.318125 
" style="fill: none; stroke: #000000; stroke-width: 0.8; stroke-linejoin: miter; stroke-linecap: square"/>
   </g>
   <g id="patch_26">
    <path d="M 703.806875 465.838125 
L 703.806875 22.318125 
" style="fill: none; stroke: #000000; stroke-width: 0.8; stroke-linejoin: miter; stroke-linecap: square"/>
   </g>
   <g id="patch_27">
    <path d="M 145.806875 465.838125 
L 703.806875 465.838125 
" style="fill: none; stroke: #000000; stroke-width: 0.8; stroke-linejoin: miter; stroke-linecap: square"/>
   </g>
   <g id="patch_28">
    <path d="M 145.806875 22.318125 
L 703.806875 22.318125 
" style="fill: none; stroke: #000000; stroke-width: 0.8; stroke-linejoin: miter; stroke-linecap: square"/>
   </g>
   <g id="text_33">
    <!-- 757890 -->
    <g transform="translate(677.235446 457.689687) scale(0.07 -0.07)">
     <defs>
      <path id="DejaVuSans-39" d="M 703 97 
L 703 672 
Q 941 559 1184 500 
Q 1428 441 1663 441 
Q 2288 441 2617 861 
Q 2947 1281 2994 2138 
Q 2813 1869 2534 1725 
Q 2256 1581 1919 1581 
Q 1219 1581 811 2004 
Q 403 2428 403 3163 
Q 403 3881 828 4315 
Q 1253 4750 1959 4750 
Q 2769 4750 3195 4129 
Q 3622 3509 3622 2328 
Q 3622 1225 3098 567 
Q 2575 -91 1691 -91 
Q 1453 -91 1209 -44 
Q 966 3 703 97 
z
M 1959 2075 
Q 2384 2075 2632 2365 
Q 2881 2656 2881 3163 
Q 2881 3666 2632 3958 
Q 2384 4250 1959 4250 
Q 1534 4250 1286 3958 
Q 1038 3666 1038 3163 
Q 1038 2656 1286 2365 
Q 1534 2075 1959 2075 
z
" transform="scale(0.015625)"/>
     </defs>
     <use xlink:href="#DejaVuSans-37"/>
     <use xlink:href="#DejaVuSans-35" transform="translate(63.623047 0)"/>
     <use xlink:href="#DejaVuSans-37" transform="translate(127.246094 0)"/>
     <use xlink:href="#DejaVuSans-38" transform="translate(190.869141 0)"/>
     <use xlink:href="#DejaVuSans-39" transform="translate(254.492188 0)"/>
     <use xlink:href="#DejaVuSans-30" transform="translate(318.115234 0)"/>
    </g>
   </g>
   <g id="text_34">
    <!-- 182653 -->
    <g transform="translate(273.88222 437.529687) scale(0.07 -0.07)">
     <use xlink:href="#DejaVuSans-31"/>
     <use xlink:href="#DejaVuSans-38" transform="translate(63.623047 0)"/>
     <use xlink:href="#DejaVuSans-32" transform="translate(127.246094 0)"/>
     <use xlink:href="#DejaVuSans-36" transform="translate(190.869141 0)"/>
     <use xlink:href="#DejaVuSans-35" transform="translate(254.492188 0)"/>
     <use xlink:href="#DejaVuSans-33" transform="translate(318.115234 0)"/>
    </g>
   </g>
   <g id="text_35">
    <!-- 179708 -->
    <g transform="translate(271.817201 417.369687) scale(0.07 -0.07)">
     <use xlink:href="#DejaVuSans-31"/>
     <use xlink:href="#DejaVuSans-37" transform="translate(63.623047 0)"/>
     <use xlink:href="#DejaVuSans-39" transform="translate(127.246094 0)"/>
     <use xlink:href="#DejaVuSans-37" transform="translate(190.869141 0)"/>
     <use xlink:href="#DejaVuSans-30" transform="translate(254.492188 0)"/>
     <use xlink:href="#DejaVuSans-38" transform="translate(318.115234 0)"/>
    </g>
   </g>
   <g id="text_36">
    <!-- 147485 -->
    <g transform="translate(249.222599 397.209687) scale(0.07 -0.07)">
     <use xlink:href="#DejaVuSans-31"/>
     <use xlink:href="#DejaVuSans-34" transform="translate(63.623047 0)"/>
     <use xlink:href="#DejaVuSans-37" transform="translate(127.246094 0)"/>
     <use xlink:href="#DejaVuSans-34" transform="translate(190.869141 0)"/>
     <use xlink:href="#DejaVuSans-38" transform="translate(254.492188 0)"/>
     <use xlink:href="#DejaVuSans-35" transform="translate(318.115234 0)"/>
    </g>
   </g>
   <g id="text_37">
    <!-- 144942 -->
    <g transform="translate(247.43946 377.049687) scale(0.07 -0.07)">
     <use xlink:href="#DejaVuSans-31"/>
     <use xlink:href="#DejaVuSans-34" transform="translate(63.623047 0)"/>
     <use xlink:href="#DejaVuSans-34" transform="translate(127.246094 0)"/>
     <use xlink:href="#DejaVuSans-39" transform="translate(190.869141 0)"/>
     <use xlink:href="#DejaVuSans-34" transform="translate(254.492188 0)"/>
     <use xlink:href="#DejaVuSans-32" transform="translate(318.115234 0)"/>
    </g>
   </g>
   <g id="text_38">
    <!-- 131316 -->
    <g transform="translate(237.884979 356.889687) scale(0.07 -0.07)">
     <use xlink:href="#DejaVuSans-31"/>
     <use xlink:href="#DejaVuSans-33" transform="translate(63.623047 0)"/>
     <use xlink:href="#DejaVuSans-31" transform="translate(127.246094 0)"/>
     <use xlink:href="#DejaVuSans-33" transform="translate(190.869141 0)"/>
     <use xlink:href="#DejaVuSans-31" transform="translate(254.492188 0)"/>
     <use xlink:href="#DejaVuSans-36" transform="translate(318.115234 0)"/>
    </g>
   </g>
   <g id="text_39">
    <!-- 99224 -->
    <g transform="translate(215.382234 336.729687) scale(0.07 -0.07)">
     <use xlink:href="#DejaVuSans-39"/>
     <use xlink:href="#DejaVuSans-39" transform="translate(63.623047 0)"/>
     <use xlink:href="#DejaVuSans-32" transform="translate(127.246094 0)"/>
     <use xlink:href="#DejaVuSans-32" transform="translate(190.869141 0)"/>
     <use xlink:href="#DejaVuSans-34" transform="translate(254.492188 0)"/>
    </g>
   </g>
   <g id="text_40">
    <!-- 75986 -->
    <g transform="translate(199.087868 316.569687) scale(0.07 -0.07)">
     <use xlink:href="#DejaVuSans-37"/>
     <use xlink:href="#DejaVuSans-35" transform="translate(63.623047 0)"/>
     <use xlink:href="#DejaVuSans-39" transform="translate(127.246094 0)"/>
     <use xlink:href="#DejaVuSans-38" transform="translate(190.869141 0)"/>
     <use xlink:href="#DejaVuSans-36" transform="translate(254.492188 0)"/>
    </g>
   </g>
   <g id="text_41">
    <!-- 75309 -->
    <g transform="translate(198.613159 296.409687) scale(0.07 -0.07)">
     <use xlink:href="#DejaVuSans-37"/>
     <use xlink:href="#DejaVuSans-35" transform="translate(63.623047 0)"/>
     <use xlink:href="#DejaVuSans-33" transform="translate(127.246094 0)"/>
     <use xlink:href="#DejaVuSans-30" transform="translate(190.869141 0)"/>
     <use xlink:href="#DejaVuSans-39" transform="translate(254.492188 0)"/>
    </g>
   </g>
   <g id="text_42">
    <!-- 65906 -->
    <g transform="translate(192.019823 276.249687) scale(0.07 -0.07)">
     <use xlink:href="#DejaVuSans-36"/>
     <use xlink:href="#DejaVuSans-35" transform="translate(63.623047 0)"/>
     <use xlink:href="#DejaVuSans-39" transform="translate(127.246094 0)"/>
     <use xlink:href="#DejaVuSans-30" transform="translate(190.869141 0)"/>
     <use xlink:href="#DejaVuSans-36" transform="translate(254.492188 0)"/>
    </g>
   </g>
   <g id="text_43">
    <!-- 42278 -->
    <g transform="translate(175.451991 256.089687) scale(0.07 -0.07)">
     <use xlink:href="#DejaVuSans-34"/>
     <use xlink:href="#DejaVuSans-32" transform="translate(63.623047 0)"/>
     <use xlink:href="#DejaVuSans-32" transform="translate(127.246094 0)"/>
     <use xlink:href="#DejaVuSans-37" transform="translate(190.869141 0)"/>
     <use xlink:href="#DejaVuSans-38" transform="translate(254.492188 0)"/>
    </g>
   </g>
   <g id="text_44">
    <!-- 38118 -->
    <g transform="translate(172.535021 235.929687) scale(0.07 -0.07)">
     <use xlink:href="#DejaVuSans-33"/>
     <use xlink:href="#DejaVuSans-38" transform="translate(63.623047 0)"/>
     <use xlink:href="#DejaVuSans-31" transform="translate(127.246094 0)"/>
     <use xlink:href="#DejaVuSans-31" transform="translate(190.869141 0)"/>
     <use xlink:href="#DejaVuSans-38" transform="translate(254.492188 0)"/>
    </g>
   </g>
   <g id="text_45">
    <!-- 33632 -->
    <g transform="translate(169.38946 215.769687) scale(0.07 -0.07)">
     <use xlink:href="#DejaVuSans-33"/>
     <use xlink:href="#DejaVuSans-33" transform="translate(63.623047 0)"/>
     <use xlink:href="#DejaVuSans-36" transform="translate(127.246094 0)"/>
     <use xlink:href="#DejaVuSans-33" transform="translate(190.869141 0)"/>
     <use xlink:href="#DejaVuSans-32" transform="translate(254.492188 0)"/>
    </g>
   </g>
   <g id="text_46">
    <!-- 26618 -->
    <g transform="translate(164.47128 195.609687) scale(0.07 -0.07)">
     <use xlink:href="#DejaVuSans-32"/>
     <use xlink:href="#DejaVuSans-36" transform="translate(63.623047 0)"/>
     <use xlink:href="#DejaVuSans-36" transform="translate(127.246094 0)"/>
     <use xlink:href="#DejaVuSans-31" transform="translate(190.869141 0)"/>
     <use xlink:href="#DejaVuSans-38" transform="translate(254.492188 0)"/>
    </g>
   </g>
   <g id="text_47">
    <!-- 17638 -->
    <g transform="translate(158.17455 175.449687) scale(0.07 -0.07)">
     <use xlink:href="#DejaVuSans-31"/>
     <use xlink:href="#DejaVuSans-37" transform="translate(63.623047 0)"/>
     <use xlink:href="#DejaVuSans-36" transform="translate(127.246094 0)"/>
     <use xlink:href="#DejaVuSans-33" transform="translate(190.869141 0)"/>
     <use xlink:href="#DejaVuSans-38" transform="translate(254.492188 0)"/>
    </g>
   </g>
   <g id="text_48">
    <!-- 16173 -->
    <g transform="translate(157.147299 155.289687) scale(0.07 -0.07)">
     <use xlink:href="#DejaVuSans-31"/>
     <use xlink:href="#DejaVuSans-36" transform="translate(63.623047 0)"/>
     <use xlink:href="#DejaVuSans-31" transform="translate(127.246094 0)"/>
     <use xlink:href="#DejaVuSans-37" transform="translate(190.869141 0)"/>
     <use xlink:href="#DejaVuSans-33" transform="translate(254.492188 0)"/>
    </g>
   </g>
   <g id="text_49">
    <!-- 8255 -->
    <g transform="translate(151.595239 135.129687) scale(0.07 -0.07)">
     <use xlink:href="#DejaVuSans-38"/>
     <use xlink:href="#DejaVuSans-32" transform="translate(63.623047 0)"/>
     <use xlink:href="#DejaVuSans-35" transform="translate(127.246094 0)"/>
     <use xlink:href="#DejaVuSans-35" transform="translate(190.869141 0)"/>
    </g>
   </g>
   <g id="text_50">
    <!-- 4514 -->
    <g transform="translate(148.972069 114.969687) scale(0.07 -0.07)">
     <use xlink:href="#DejaVuSans-34"/>
     <use xlink:href="#DejaVuSans-35" transform="translate(63.623047 0)"/>
     <use xlink:href="#DejaVuSans-31" transform="translate(127.246094 0)"/>
     <use xlink:href="#DejaVuSans-34" transform="translate(190.869141 0)"/>
    </g>
   </g>
   <g id="text_51">
    <!-- 4216 -->
    <g transform="translate(148.763113 94.809687) scale(0.07 -0.07)">
     <use xlink:href="#DejaVuSans-34"/>
     <use xlink:href="#DejaVuSans-32" transform="translate(63.623047 0)"/>
     <use xlink:href="#DejaVuSans-31" transform="translate(127.246094 0)"/>
     <use xlink:href="#DejaVuSans-36" transform="translate(190.869141 0)"/>
    </g>
   </g>
   <g id="text_52">
    <!-- 2983 -->
    <g transform="translate(147.898539 74.649687) scale(0.07 -0.07)">
     <use xlink:href="#DejaVuSans-32"/>
     <use xlink:href="#DejaVuSans-39" transform="translate(63.623047 0)"/>
     <use xlink:href="#DejaVuSans-38" transform="translate(127.246094 0)"/>
     <use xlink:href="#DejaVuSans-33" transform="translate(190.869141 0)"/>
    </g>
   </g>
   <g id="text_53">
    <!-- 1747 -->
    <g transform="translate(147.031862 54.489687) scale(0.07 -0.07)">
     <use xlink:href="#DejaVuSans-31"/>
     <use xlink:href="#DejaVuSans-37" transform="translate(63.623047 0)"/>
     <use xlink:href="#DejaVuSans-34" transform="translate(127.246094 0)"/>
     <use xlink:href="#DejaVuSans-37" transform="translate(190.869141 0)"/>
    </g>
   </g>
   <g id="text_54">
    <!-- 401 -->
    <g transform="translate(146.088054 34.329687) scale(0.07 -0.07)">
     <use xlink:href="#DejaVuSans-34"/>
     <use xlink:href="#DejaVuSans-30" transform="translate(63.623047 0)"/>
     <use xlink:href="#DejaVuSans-31" transform="translate(127.246094 0)"/>
    </g>
   </g>
   <g id="text_55">
    <!-- Total Number of Incidents per Category (2018-2025) -->
    <g transform="translate(267.384687 16.318125) scale(0.12 -0.12)">
     <use xlink:href="#DejaVuSans-54"/>
     <use xlink:href="#DejaVuSans-6f" transform="translate(44.083984 0)"/>
     <use xlink:href="#DejaVuSans-74" transform="translate(105.265625 0)"/>
     <use xlink:href="#DejaVuSans-61" transform="translate(144.474609 0)"/>
     <use xlink:href="#DejaVuSans-6c" transform="translate(205.753906 0)"/>
     <use xlink:href="#DejaVuSans-20" transform="translate(233.537109 0)"/>
     <use xlink:href="#DejaVuSans-4e" transform="translate(265.324219 0)"/>
     <use xlink:href="#DejaVuSans-75" transform="translate(340.128906 0)"/>
     <use xlink:href="#DejaVuSans-6d" transform="translate(403.507812 0)"/>
     <use xlink:href="#DejaVuSans-62" transform="translate(500.919922 0)"/>
     <use xlink:href="#DejaVuSans-65" transform="translate(564.396484 0)"/>
     <use xlink:href="#DejaVuSans-72" transform="translate(625.919922 0)"/>
     <use xlink:href="#DejaVuSans-20" transform="translate(667.033203 0)"/>
     <use xlink:href="#DejaVuSans-6f" transform="translate(698.820312 0)"/>
     <use xlink:href="#DejaVuSans-66" transform="translate(760.001953 0)"/>
     <use xlink:href="#DejaVuSans-20" transform="translate(795.207031 0)"/>
     <use xlink:href="#DejaVuSans-49" transform="translate(826.994141 0)"/>
     <use xlink:href="#DejaVuSans-6e" transform="translate(856.486328 0)"/>
     <use xlink:href="#DejaVuSans-63" transform="translate(919.865234 0)"/>
     <use xlink:href="#DejaVuSans-69" transform="translate(974.845703 0)"/>
     <use xlink:href="#DejaVuSans-64" transform="translate(1002.628906 0)"/>
     <use xlink:href="#DejaVuSans-65" transform="translate(1066.105469 0)"/>
     <use xlink:href="#DejaVuSans-6e" transform="translate(1127.628906 0)"/>
     <use xlink:href="#DejaVuSans-74" transform="translate(1191.007812 0)"/>
     <use xlink:href="#DejaVuSans-73" transform="translate(1230.216797 0)"/>
     <use xlink:href="#DejaVuSans-20" transform="translate(1282.316406 0)"/>
     <use xlink:href="#DejaVuSans-70" transform="translate(1314.103516 0)"/>
     <use xlink:href="#DejaVuSans-65" transform="translate(1377.580078 0)"/>
     <use xlink:href="#DejaVuSans-72" transform="translate(1439.103516 0)"/>
     <use xlink:href="#DejaVuSans-20" transform="translate(1480.216797 0)"/>
     <use xlink:href="#DejaVuSans-43" transform="translate(1512.003906 0)"/>
     <use xlink:href="#DejaVuSans-61" transform="translate(1581.828125 0)"/>
     <use xlink:href="#DejaVuSans-74" transform="translate(1643.107422 0)"/>
     <use xlink:href="#DejaVuSans-65" transform="translate(1682.316406 0)"/>
     <use xlink:href="#DejaVuSans-67" transform="translate(1743.839844 0)"/>
     <use xlink:href="#DejaVuSans-6f" transform="translate(1807.316406 0)"/>
     <use xlink:href="#DejaVuSans-72" transform="translate(1868.498047 0)"/>
     <use xlink:href="#DejaVuSans-79" transform="translate(1909.611328 0)"/>
     <use xlink:href="#DejaVuSans-20" transform="translate(1968.791016 0)"/>
     <use xlink:href="#DejaVuSans-28" transform="translate(2000.578125 0)"/>
     <use xlink:href="#DejaVuSans-32" transform="translate(2039.591797 0)"/>
     <use xlink:href="#DejaVuSans-30" transform="translate(2103.214844 0)"/>
     <use xlink:href="#DejaVuSans-31" transform="translate(2166.837891 0)"/>
     <use xlink:href="#DejaVuSans-38" transform="translate(2230.460938 0)"/>
     <use xlink:href="#DejaVuSans-2d" transform="translate(2294.083984 0)"/>
     <use xlink:href="#DejaVuSans-32" transform="translate(2330.167969 0)"/>
     <use xlink:href="#DejaVuSans-30" transform="translate(2393.791016 0)"/>
     <use xlink:href="#DejaVuSans-32" transform="translate(2457.414062 0)"/>
     <use xlink:href="#DejaVuSans-35" transform="translate(2521.037109 0)"/>
     <use xlink:href="#DejaVuSans-29" transform="translate(2584.660156 0)"/>
    </g>
   </g>
   <g id="legend_1">
    <g id="patch_29">
     <path d="M 565.414688 59.674375 
L 696.806875 59.674375 
Q 698.806875 59.674375 698.806875 57.674375 
L 698.806875 29.318125 
Q 698.806875 27.318125 696.806875 27.318125 
L 565.414688 27.318125 
Q 563.414688 27.318125 563.414688 29.318125 
L 563.414688 57.674375 
Q 563.414688 59.674375 565.414688 59.674375 
z
" style="fill: #ffffff; opacity: 0.8; stroke: #cccccc; stroke-linejoin: miter"/>
    </g>
    <g id="patch_30">
     <path d="M 567.414688 38.916562 
L 587.414688 38.916562 
L 587.414688 31.916562 
L 567.414688 31.916562 
z
" style="fill: #008000; stroke: #008000; stroke-linejoin: miter"/>
    </g>
    <g id="text_56">
     <!-- High Confidence -->
     <g transform="translate(595.414688 38.916562) scale(0.1 -0.1)">
      <defs>
       <path id="DejaVuSans-48" d="M 628 4666 
L 1259 4666 
L 1259 2753 
L 3553 2753 
L 3553 4666 
L 4184 4666 
L 4184 0 
L 3553 0 
L 3553 2222 
L 1259 2222 
L 1259 0 
L 628 0 
L 628 4666 
z
" transform="scale(0.015625)"/>
      </defs>
      <use xlink:href="#DejaVuSans-48"/>
      <use xlink:href="#DejaVuSans-69" transform="translate(75.195312 0)"/>
      <use xlink:href="#DejaVuSans-67" transform="translate(102.978516 0)"/>
      <use xlink:href="#DejaVuSans-68" transform="translate(166.455078 0)"/>
      <use xlink:href="#DejaVuSans-20" transform="translate(229.833984 0)"/>
      <use xlink:href="#DejaVuSans-43" transform="translate(261.621094 0)"/>
      <use xlink:href="#DejaVuSans-6f" transform="translate(331.445312 0)"/>
      <use xlink:href="#DejaVuSans-6e" transform="translate(392.626953 0)"/>
      <use xlink:href="#DejaVuSans-66" transform="translate(456.005859 0)"/>
      <use xlink:href="#DejaVuSans-69" transform="translate(491.210938 0)"/>
      <use xlink:href="#DejaVuSans-64" transform="translate(518.994141 0)"/>
      <use xlink:href="#DejaVuSans-65" transform="translate(582.470703 0)"/>
      <use xlink:href="#DejaVuSans-6e" transform="translate(643.994141 0)"/>
      <use xlink:href="#DejaVuSans-63" transform="translate(707.373047 0)"/>
      <use xlink:href="#DejaVuSans-65" transform="translate(762.353516 0)"/>
     </g>
    </g>
    <g id="patch_31">
     <path d="M 567.414688 53.594687 
L 587.414688 53.594687 
L 587.414688 46.594687 
L 567.414688 46.594687 
z
" style="fill: #ffa500; stroke: #ffa500; stroke-linejoin: miter"/>
    </g>
    <g id="text_57">
     <!-- Medium Confidence -->
     <g transform="translate(595.414688 53.594687) scale(0.1 -0.1)">
      <use xlink:href="#DejaVuSans-4d"/>
      <use xlink:href="#DejaVuSans-65" transform="translate(86.279297 0)"/>
      <use xlink:href="#DejaVuSans-64" transform="translate(147.802734 0)"/>
      <use xlink:href="#DejaVuSans-69" transform="translate(211.279297 0)"/>
      <use xlink:href="#DejaVuSans-75" transform="translate(239.0625 0)"/>
      <use xlink:href="#DejaVuSans-6d" transform="translate(302.441406 0)"/>
      <use xlink:href="#DejaVuSans-20" transform="translate(399.853516 0)"/>
      <use xlink:href="#DejaVuSans-43" transform="translate(431.640625 0)"/>
      <use xlink:href="#DejaVuSans-6f" transform="translate(501.464844 0)"/>
      <use xlink:href="#DejaVuSans-6e" transform="translate(562.646484 0)"/>
      <use xlink:href="#DejaVuSans-66" transform="translate(626.025391 0)"/>
      <use xlink:href="#DejaVuSans-69" transform="translate(661.230469 0)"/>
      <use xlink:href="#DejaVuSans-64" transform="translate(689.013672 0)"/>
      <use xlink:href="#DejaVuSans-65" transform="translate(752.490234 0)"/>
      <use xlink:href="#DejaVuSans-6e" transform="translate(814.013672 0)"/>
      <use xlink:href="#DejaVuSans-63" transform="translate(877.392578 0)"/>
      <use xlink:href="#DejaVuSans-65" transform="translate(932.373047 0)"/>
     </g>
    </g>
   </g>
  </g>
 </g>
 <defs>
  <clipPath id="p322c6f16ed">
   <rect x="145.806875" y="22.318125" width="558" height="443.52"/>
  </clipPath>
 </defs>
</svg>
